<svg xmlns="http://www.w3.org/2000/svg" xmlns:xlink="http://www.w3.org/1999/xlink" preserveAspectRatio="xMidYMid" width="20" height="14" viewBox="0 0 20 14">
  <defs>
    <style>

      .cls-2 {
        fill: #ffffff;
      }
    </style>
  </defs>
  <path d="M0.357,7.774 C0.357,7.774 6.932,13.680 6.932,13.680 C7.408,14.107 8.179,14.107 8.654,13.680 C9.130,13.252 9.130,12.560 8.654,12.133 C8.654,12.133 4.157,8.094 4.157,8.094 C4.157,8.094 18.782,8.094 18.782,8.094 C19.455,8.094 20.000,7.604 20.000,7.000 C20.000,6.396 19.455,5.906 18.782,5.906 C18.782,5.906 4.157,5.906 4.157,5.906 C4.157,5.906 8.654,1.867 8.654,1.867 C9.130,1.440 9.130,0.748 8.654,0.321 C8.416,0.107 8.105,-0.000 7.793,-0.000 C7.481,-0.000 7.170,0.107 6.932,0.321 C6.932,0.321 0.357,6.227 0.357,6.227 C-0.119,6.654 -0.119,7.346 0.357,7.774 Z" id="path-1" class="cls-2" fill-rule="evenodd"/>
</svg>
