<svg xmlns="http://www.w3.org/2000/svg" xmlns:xlink="http://www.w3.org/1999/xlink" preserveAspectRatio="xMidYMid" width="21" height="14" viewBox="0 0 21 14">
  <defs>
    <style>

      .cls-2 {
        fill: #ffffff;
      }
    </style>
  </defs>
  <path d="M19.643,6.195 C19.643,6.195 13.068,0.289 13.068,0.289 C12.593,-0.138 11.822,-0.138 11.346,0.289 C10.871,0.716 10.871,1.409 11.346,1.836 C11.346,1.836 15.843,5.875 15.843,5.875 C15.843,5.875 1.218,5.875 1.218,5.875 C0.545,5.875 0.000,6.365 0.000,6.969 C0.000,7.573 0.545,8.063 1.218,8.063 C1.218,8.063 15.843,8.063 15.843,8.063 C15.843,8.063 11.346,12.102 11.346,12.102 C10.871,12.529 10.871,13.221 11.346,13.648 C11.584,13.862 11.895,13.969 12.207,13.969 C12.519,13.969 12.830,13.862 13.068,13.648 C13.068,13.648 19.643,7.742 19.643,7.742 C20.119,7.315 20.119,6.622 19.643,6.195 Z" id="path-1" class="cls-2" fill-rule="evenodd"/>
</svg>
