<svg xmlns="http://www.w3.org/2000/svg" xmlns:xlink="http://www.w3.org/1999/xlink" version="1.1" x="0px" y="0px" viewBox="0 0 1000 1000" enable-background="new 0 0 1000 1000" xml:space="preserve">
<path d="M143.6,10h712.7c36.9,0,68.4,13.1,94.5,39.2c26.1,26.1,39.2,57.6,39.2,94.5v490c0,36.9-13.1,68.4-39.2,94.5c-26.1,26.1-57.6,39.2-94.5,39.2H500L188.2,990V767.3h-44.5c-36.9,0-68.4-13.1-94.5-39.2C23.1,702,10,670.5,10,633.6v-490c0-36.9,13.1-68.4,39.2-94.5C75.3,23.1,106.7,10,143.6,10z M856.4,99.1H143.6c-12.3,0-22.8,4.4-31.5,13.1c-8.7,8.7-13.1,19.2-13.1,31.5v490c0,12.3,4.4,22.8,13.1,31.5c8.7,8.7,19.2,13.1,31.5,13.1h133.6V817l194.2-138.9h384.9c12.3,0,22.8-4.3,31.5-13.1c8.7-8.7,13.1-19.2,13.1-31.5v-490c0-12.3-4.3-22.8-13.1-31.5C879.2,103.4,868.7,99.1,856.4,99.1z"/>
</svg>