<svg xmlns="http://www.w3.org/2000/svg" xmlns:xlink="http://www.w3.org/1999/xlink" preserveAspectRatio="xMidYMid" width="21" height="20" viewBox="0 0 21 20">
  <defs>
    <style>

      .cls-2 {
        fill: #444444;
      }
    </style>
  </defs>
  <path d="M20.213,4.508 C20.213,4.508 14.818,7.918 14.818,7.918 C14.818,7.918 12.405,9.607 14.133,11.402 C14.133,11.402 15.831,12.288 14.367,13.628 C14.367,13.628 13.023,14.948 12.997,14.974 C12.997,14.974 5.291,7.246 5.291,7.246 C5.328,7.208 6.541,5.725 6.541,5.725 C6.541,5.725 7.586,4.251 9.259,6.609 C11.596,8.524 12.614,6.202 12.614,6.202 C12.614,6.202 16.334,0.770 16.334,0.770 C17.197,-0.491 20.811,0.192 20.811,0.192 C20.811,0.192 21.495,3.101 20.213,4.508 ZM18.902,1.411 C18.520,1.411 18.210,1.724 18.210,2.110 C18.210,2.496 18.520,2.809 18.902,2.809 C19.284,2.809 19.594,2.496 19.594,2.110 C19.594,1.724 19.284,1.411 18.902,1.411 ZM7.616,20.007 C7.616,20.007 7.341,19.618 7.341,19.618 C7.341,19.618 10.424,15.669 10.424,15.669 C10.424,15.669 7.010,19.340 7.010,19.340 C7.010,19.340 6.735,19.117 6.735,19.117 C6.735,19.117 9.158,16.281 9.158,16.281 C9.158,16.281 6.350,18.839 6.350,18.839 C6.350,18.839 6.019,18.505 6.019,18.505 C6.019,18.505 8.121,16.203 9.057,15.274 C9.057,15.274 9.488,14.891 9.488,14.891 C9.445,14.902 9.285,15.049 9.057,15.274 C9.057,15.274 5.799,18.172 5.799,18.172 C5.799,18.172 5.634,17.894 5.634,17.894 C5.634,17.894 7.396,15.836 7.396,15.836 C7.396,15.836 5.358,17.671 5.358,17.671 C5.358,17.671 5.138,17.338 5.138,17.338 C5.138,17.338 6.900,14.835 6.900,14.835 C6.900,14.835 4.863,17.171 4.863,17.171 C4.863,17.171 5.469,15.836 5.469,15.836 C5.469,15.836 4.588,16.837 4.588,16.837 C4.588,16.837 4.312,16.559 4.312,16.559 C4.312,16.559 7.286,12.666 7.286,12.666 C7.286,12.666 4.089,16.354 4.089,16.354 C4.089,16.354 3.927,16.114 3.927,16.114 C3.927,16.114 5.524,13.556 5.524,13.556 C5.524,13.556 3.596,15.892 3.596,15.892 C3.596,15.892 3.376,15.725 3.376,15.725 C3.376,15.725 5.579,12.666 5.579,12.666 C5.579,12.666 3.101,15.447 3.101,15.447 C3.101,15.447 4.477,13.445 4.477,13.445 C4.477,13.445 2.825,15.280 2.825,15.280 C2.825,15.280 2.605,14.946 2.605,14.946 C2.605,14.946 5.138,10.998 5.138,10.998 C5.138,10.998 2.385,14.724 2.385,14.724 C2.385,14.724 2.110,14.390 2.110,14.390 C2.110,14.390 2.881,13.222 2.881,13.222 C2.881,13.222 1.834,14.112 1.834,14.112 C1.834,14.112 1.559,13.834 1.559,13.834 C1.559,13.834 3.376,12.054 3.376,12.054 C3.376,12.054 1.174,13.612 1.174,13.612 C1.174,13.612 3.982,10.275 3.982,10.275 C3.982,10.275 1.063,13.445 1.063,13.445 C1.063,13.445 0.678,13.000 0.678,13.000 C0.678,13.000 2.770,10.831 2.770,10.831 C2.770,10.831 0.348,12.833 0.348,12.833 C0.348,12.833 0.004,12.244 0.004,12.244 C0.004,12.244 4.773,7.915 4.773,7.915 C4.773,7.915 12.419,15.304 12.419,15.304 C12.419,15.304 7.616,20.007 7.616,20.007 Z" id="path-1" class="cls-2" fill-rule="evenodd"/>
</svg>
