<svg xmlns="http://www.w3.org/2000/svg" xmlns:xlink="http://www.w3.org/1999/xlink" preserveAspectRatio="xMidYMid" width="42" height="28" viewBox="0 0 21 14">
  <defs>
    <style>

      .cls-2 {
        fill: #c6c6c6;
      }
    </style>
  </defs>
  <path d="M18.209,13.977 C18.209,13.977 17.392,13.009 17.392,13.009 C18.913,11.419 19.877,9.303 19.877,6.981 C19.877,4.655 18.911,2.536 17.386,0.945 C17.386,0.945 18.203,-0.002 18.203,-0.002 C19.935,1.867 21.002,4.280 21.002,6.981 C21.002,9.687 19.948,12.105 18.209,13.977 ZM15.996,12.049 C15.996,12.049 15.240,11.089 15.240,11.089 C16.360,10.047 17.073,8.591 17.073,6.980 C17.073,5.401 16.387,3.971 15.305,2.934 C15.305,2.934 16.034,1.934 16.034,1.934 C17.343,3.247 18.165,5.025 18.165,6.981 C18.165,8.973 17.349,10.728 15.996,12.049 ZM13.925,9.969 C13.925,9.969 13.364,9.011 13.364,9.011 C14.020,8.561 14.217,7.809 14.217,6.979 C14.217,6.224 13.865,5.549 13.309,5.094 C13.309,5.094 13.890,3.962 13.890,3.962 C14.769,4.697 15.323,5.777 15.323,6.980 C15.323,8.167 14.783,9.234 13.925,9.969 ZM10.174,14.000 C10.174,14.000 5.254,10.726 5.254,10.726 C5.254,10.726 5.254,3.296 5.254,3.296 C5.254,3.296 10.174,0.057 10.174,0.057 C10.823,0.057 11.752,0.526 11.752,1.104 C11.752,1.104 11.752,12.954 11.752,12.954 C11.752,13.532 10.823,14.000 10.174,14.000 ZM-0.006,9.297 C-0.006,9.297 -0.006,4.760 -0.006,4.760 C-0.006,4.182 0.520,3.361 1.169,3.361 C1.169,3.361 4.707,3.361 4.707,3.361 C4.707,3.361 4.707,10.616 4.707,10.616 C4.707,10.616 1.169,10.616 1.169,10.616 C0.520,10.616 -0.006,9.875 -0.006,9.297 Z" id="path-1" class="cls-2" fill-rule="evenodd"/>
</svg>
