<svg xmlns="http://www.w3.org/2000/svg" xmlns:xlink="http://www.w3.org/1999/xlink" preserveAspectRatio="xMidYMid" width="12" height="14" viewBox="0 0 12 14">
  <defs>
    <style>

      .cls-2 {
        fill: #c6c6c6;
      }
    </style>
  </defs>
  <path d="M10.392,14.000 C10.392,14.000 5.370,10.710 5.370,10.710 C5.370,10.710 5.370,3.246 5.370,3.246 C5.370,3.246 10.392,-0.008 10.392,-0.008 C11.054,-0.008 12.003,0.462 12.003,1.043 C12.003,1.043 12.003,12.949 12.003,12.949 C12.003,13.530 11.054,14.000 10.392,14.000 ZM4.811,10.600 C4.811,10.600 1.199,10.600 1.199,10.600 C0.537,10.600 0.000,9.855 0.000,9.275 C0.000,9.275 0.000,4.717 0.000,4.717 C0.000,4.136 0.537,3.310 1.199,3.310 C1.199,3.310 4.811,3.310 4.811,3.310 C4.811,3.310 4.811,10.600 4.811,10.600 Z" id="path-1" class="cls-2" fill-rule="evenodd"/>
</svg>
