<svg xmlns="http://www.w3.org/2000/svg" xmlns:xlink="http://www.w3.org/1999/xlink" preserveAspectRatio="xMidYMid" width="16" height="18" viewBox="0 0 16 18">
  <defs>
    <style>

      .cls-2 {
        fill: #444444;
      }
    </style>
  </defs>
  <path d="M14.769,17.995 C14.769,17.995 1.231,17.995 1.231,17.995 C0.551,17.995 0.000,17.439 0.000,16.753 C0.000,16.753 0.000,3.098 0.000,3.098 C0.000,2.413 0.551,1.857 1.231,1.857 C1.231,1.857 2.462,1.857 2.462,1.857 C2.462,1.857 2.462,2.477 2.462,2.477 C2.462,3.506 3.288,4.340 4.308,4.340 C5.327,4.340 6.154,3.506 6.154,2.477 C6.154,2.477 6.154,1.857 6.154,1.857 C6.154,1.857 9.846,1.857 9.846,1.857 C9.846,1.857 9.846,2.477 9.846,2.477 C9.846,3.506 10.673,4.340 11.692,4.340 C12.712,4.340 13.538,3.506 13.538,2.477 C13.538,2.477 13.538,1.857 13.538,1.857 C13.538,1.857 14.769,1.857 14.769,1.857 C15.449,1.857 16.000,2.413 16.000,3.098 C16.000,3.098 16.000,16.753 16.000,16.753 C16.000,17.439 15.449,17.995 14.769,17.995 ZM14.769,6.202 C14.769,6.202 1.231,6.202 1.231,6.202 C1.231,6.202 1.231,16.753 1.231,16.753 C1.231,16.753 14.769,16.753 14.769,16.753 C14.769,16.753 14.769,6.202 14.769,6.202 ZM4.308,9.305 C4.308,9.305 2.462,9.305 2.462,9.305 C2.462,9.305 2.462,7.443 2.462,7.443 C2.462,7.443 4.308,7.443 4.308,7.443 C4.308,7.443 4.308,9.305 4.308,9.305 ZM4.308,12.409 C4.308,12.409 2.462,12.409 2.462,12.409 C2.462,12.409 2.462,10.546 2.462,10.546 C2.462,10.546 4.308,10.546 4.308,10.546 C4.308,10.546 4.308,12.409 4.308,12.409 ZM4.308,15.512 C4.308,15.512 2.462,15.512 2.462,15.512 C2.462,15.512 2.462,13.650 2.462,13.650 C2.462,13.650 4.308,13.650 4.308,13.650 C4.308,13.650 4.308,15.512 4.308,15.512 ZM7.385,9.305 C7.385,9.305 5.539,9.305 5.539,9.305 C5.539,9.305 5.539,7.443 5.539,7.443 C5.539,7.443 7.385,7.443 7.385,7.443 C7.385,7.443 7.385,9.305 7.385,9.305 ZM7.385,12.409 C7.385,12.409 5.539,12.409 5.539,12.409 C5.539,12.409 5.539,10.546 5.539,10.546 C5.539,10.546 7.385,10.546 7.385,10.546 C7.385,10.546 7.385,12.409 7.385,12.409 ZM7.385,15.512 C7.385,15.512 5.539,15.512 5.539,15.512 C5.539,15.512 5.539,13.650 5.539,13.650 C5.539,13.650 7.385,13.650 7.385,13.650 C7.385,13.650 7.385,15.512 7.385,15.512 ZM10.462,9.305 C10.462,9.305 8.615,9.305 8.615,9.305 C8.615,9.305 8.615,7.443 8.615,7.443 C8.615,7.443 10.462,7.443 10.462,7.443 C10.462,7.443 10.462,9.305 10.462,9.305 ZM10.462,12.409 C10.462,12.409 8.615,12.409 8.615,12.409 C8.615,12.409 8.615,10.546 8.615,10.546 C8.615,10.546 10.462,10.546 10.462,10.546 C10.462,10.546 10.462,12.409 10.462,12.409 ZM10.462,15.512 C10.462,15.512 8.615,15.512 8.615,15.512 C8.615,15.512 8.615,13.650 8.615,13.650 C8.615,13.650 10.462,13.650 10.462,13.650 C10.462,13.650 10.462,15.512 10.462,15.512 ZM13.538,9.305 C13.538,9.305 11.692,9.305 11.692,9.305 C11.692,9.305 11.692,7.443 11.692,7.443 C11.692,7.443 13.538,7.443 13.538,7.443 C13.538,7.443 13.538,9.305 13.538,9.305 ZM13.538,12.409 C13.538,12.409 11.692,12.409 11.692,12.409 C11.692,12.409 11.692,10.546 11.692,10.546 C11.692,10.546 13.538,10.546 13.538,10.546 C13.538,10.546 13.538,12.409 13.538,12.409 ZM13.538,15.512 C13.538,15.512 11.692,15.512 11.692,15.512 C11.692,15.512 11.692,13.650 11.692,13.650 C11.692,13.650 13.538,13.650 13.538,13.650 C13.538,13.650 13.538,15.512 13.538,15.512 ZM11.673,3.719 C11.004,3.719 10.462,3.172 10.462,2.497 C10.462,2.497 10.462,1.217 10.462,1.217 C10.462,0.542 11.004,-0.005 11.673,-0.005 C12.342,-0.005 12.885,0.542 12.885,1.217 C12.885,1.217 12.885,2.497 12.885,2.497 C12.885,3.172 12.342,3.719 11.673,3.719 ZM4.289,3.719 C3.619,3.719 3.077,3.172 3.077,2.497 C3.077,2.497 3.077,1.217 3.077,1.217 C3.077,0.542 3.619,-0.005 4.289,-0.005 C4.958,-0.005 5.500,0.542 5.500,1.217 C5.500,1.217 5.500,2.497 5.500,2.497 C5.500,3.172 4.958,3.719 4.289,3.719 Z" id="path-1" class="cls-2" fill-rule="evenodd"/>
</svg>
