<svg xmlns="http://www.w3.org/2000/svg" xmlns:xlink="http://www.w3.org/1999/xlink" preserveAspectRatio="xMidYMid" width="20" height="14" viewBox="0 0 20 14">
  <defs>
    <style>

      .cls-2 {
        fill: #444444;
      }
    </style>
  </defs>
  <path d="M18.454,13.996 C18.454,13.996 1.713,13.996 1.713,13.996 C0.766,13.996 -0.002,13.254 -0.002,12.339 C-0.002,12.339 -0.002,2.859 -0.002,2.859 C-0.002,1.944 1.154,1.244 2.102,1.244 C2.102,1.244 3.459,1.232 3.459,1.232 C3.459,1.232 3.508,0.662 3.508,0.662 C3.508,0.296 3.873,-0.001 4.252,-0.001 C4.252,-0.001 7.599,-0.001 7.599,-0.001 C7.978,-0.001 8.285,0.296 8.285,0.662 C8.285,0.662 8.276,1.244 8.276,1.244 C12.523,1.244 18.454,1.244 18.454,1.244 C19.401,1.244 19.996,1.986 19.996,2.901 C19.996,2.901 19.996,12.339 19.996,12.339 C19.996,13.254 19.401,13.996 18.454,13.996 ZM2.073,1.962 C1.501,1.962 0.691,2.410 0.691,2.963 C0.691,2.963 0.691,12.310 0.691,12.310 C0.691,12.947 2.073,13.312 2.073,13.312 C2.073,13.312 2.073,1.962 2.073,1.962 ZM7.476,2.550 C7.008,2.550 6.629,2.917 6.629,3.368 C6.629,3.820 7.008,4.187 7.476,4.187 C7.943,4.187 8.323,3.820 8.323,3.368 C8.323,2.917 7.943,2.550 7.476,2.550 ZM12.067,5.310 C9.966,5.310 8.263,6.955 8.263,8.984 C8.263,11.014 9.966,12.659 12.067,12.659 C14.168,12.659 15.871,11.014 15.871,8.984 C15.871,6.955 14.168,5.310 12.067,5.310 ZM18.613,3.264 C18.613,2.898 18.305,2.601 17.927,2.601 C17.927,2.601 14.801,2.601 14.801,2.601 C14.422,2.601 14.458,2.566 14.458,2.933 C14.458,2.933 14.458,3.980 14.458,3.980 C14.458,4.346 14.765,4.642 15.144,4.642 C15.144,4.642 18.270,4.642 18.270,4.642 C18.648,4.642 18.613,4.677 18.613,4.311 C18.613,4.311 18.613,3.264 18.613,3.264 ZM12.092,11.258 C10.747,11.258 9.656,10.205 9.656,8.905 C9.656,7.607 10.747,6.553 12.092,6.553 C13.437,6.553 14.527,7.607 14.527,8.905 C14.527,10.205 13.437,11.258 12.092,11.258 Z" id="path-1" class="cls-2" fill-rule="evenodd"/>
</svg>
