<svg xmlns="http://www.w3.org/2000/svg" xmlns:xlink="http://www.w3.org/1999/xlink" preserveAspectRatio="xMidYMid" width="16" height="20" viewBox="0 0 16 20">
  <defs>
    <style>

      .cls-2 {
        fill: #444444;
      }
    </style>
  </defs>
  <path d="M16.000,10.000 C16.000,10.000 10.000,10.000 10.000,10.000 C10.000,10.000 10.000,20.000 10.000,20.000 C10.000,20.000 6.000,20.000 6.000,20.000 C6.000,20.000 6.000,10.000 6.000,10.000 C6.000,10.000 0.000,10.000 0.000,10.000 C0.000,10.000 0.000,6.001 0.000,6.001 C0.000,6.001 6.000,6.001 6.000,6.001 C6.000,6.001 6.000,0.000 6.000,0.000 C6.000,0.000 10.000,0.000 10.000,0.000 C10.000,0.000 10.000,6.001 10.000,6.001 C10.000,6.001 16.000,6.001 16.000,6.001 C16.000,6.001 16.000,10.000 16.000,10.000 Z" id="path-1" class="cls-2" fill-rule="evenodd"/>
</svg>
