<svg xmlns="http://www.w3.org/2000/svg" xmlns:xlink="http://www.w3.org/1999/xlink" preserveAspectRatio="xMidYMid" width="17" height="17" viewBox="0 0 17 17">
  <defs>
    <style>

      .cls-2 {
        fill: #efefef;
      }
    </style>
  </defs>
  <path d="M0.505,2.171 C0.505,2.171 -0.615,3.313 0.515,4.443 C1.645,5.573 4.470,8.398 4.470,8.398 C4.470,8.398 0.474,12.393 0.474,12.393 C0.474,12.393 -0.563,13.548 0.461,14.573 C0.461,14.573 2.086,16.197 2.086,16.197 C2.086,16.197 3.298,17.480 4.394,16.384 C4.394,16.384 8.425,12.353 8.425,12.353 C8.425,12.353 12.368,16.297 12.368,16.297 C12.368,16.297 13.497,17.427 14.594,16.330 C14.594,16.330 16.291,14.633 16.291,14.633 C16.291,14.633 17.387,13.395 16.398,12.407 C16.398,12.407 12.390,8.399 12.390,8.399 C12.390,8.399 16.315,4.475 16.315,4.475 C16.315,4.475 17.499,3.325 16.369,2.196 C16.369,2.196 14.604,0.430 14.604,0.430 C14.604,0.430 13.491,-0.611 12.395,0.485 C12.395,0.485 8.471,4.409 8.471,4.409 C8.471,4.409 4.486,0.425 4.486,0.425 C4.486,0.425 3.174,-0.534 2.219,0.421 C1.265,1.375 0.505,2.171 0.505,2.171 Z" id="path-1" class="cls-2" fill-rule="evenodd"/>
</svg>
