<svg xmlns="http://www.w3.org/2000/svg" xmlns:xlink="http://www.w3.org/1999/xlink" preserveAspectRatio="xMidYMid" width="13" height="13" viewBox="0 0 13 13">
  <defs>
    <style>

      .cls-2 {
        fill: #777777;
      }
    </style>
  </defs>
  <path d="M12.739,12.032 C12.739,12.032 12.032,12.739 12.032,12.739 C12.032,12.739 6.375,7.082 6.375,7.082 C6.375,7.082 0.718,12.739 0.718,12.739 C0.718,12.739 0.011,12.032 0.011,12.032 C0.011,12.032 5.668,6.375 5.668,6.375 C5.668,6.375 0.011,0.718 0.011,0.718 C0.011,0.718 0.718,0.011 0.718,0.011 C0.718,0.011 6.375,5.668 6.375,5.668 C6.375,5.668 12.032,0.011 12.032,0.011 C12.032,0.011 12.739,0.718 12.739,0.718 C12.739,0.718 7.082,6.375 7.082,6.375 C7.082,6.375 12.739,12.032 12.739,12.032 Z" id="path-1" class="cls-2" fill-rule="evenodd"/>
</svg>
