<svg xmlns="http://www.w3.org/2000/svg" xmlns:xlink="http://www.w3.org/1999/xlink" preserveAspectRatio="xMidYMid" width="23" height="16" viewBox="0 0 23 16">
  <defs>
    <style>

      .cls-2 {
        fill: #a0b256;
      }
    </style>
  </defs>
  <path d="M15.365,7.106 C15.365,7.106 22.996,0.801 22.996,0.801 C22.996,0.801 22.996,15.987 22.996,15.987 C22.996,15.987 15.365,7.106 15.365,7.106 ZM0.091,0.000 C0.091,0.000 22.939,0.000 22.939,0.000 C22.939,0.000 11.515,9.373 11.515,9.373 C11.515,9.373 0.091,0.000 0.091,0.000 ZM0.004,15.987 C0.004,15.987 0.004,0.801 0.004,0.801 C0.004,0.801 7.635,7.106 7.635,7.106 C7.635,7.106 0.004,15.987 0.004,15.987 ZM11.512,10.291 C11.512,10.291 14.863,7.528 14.863,7.528 C14.863,7.528 22.143,15.995 22.143,15.995 C22.143,15.995 0.887,15.995 0.887,15.995 C0.887,15.995 8.167,7.612 8.167,7.612 C8.167,7.612 11.512,10.291 11.512,10.291 Z" id="path-1" class="cls-2" fill-rule="evenodd"/>
</svg>
