<svg xmlns="http://www.w3.org/2000/svg" xmlns:xlink="http://www.w3.org/1999/xlink" preserveAspectRatio="xMidYMid" width="10" height="20" viewBox="0 0 10 20">
  <defs>
    <style>

      .cls-2 {
        fill: #587dc0;
      }
    </style>
  </defs>
  <path d="M10.003,6.477 C10.003,6.477 6.595,6.477 6.595,6.477 C6.595,6.477 6.595,4.401 6.595,4.401 C6.595,3.622 7.151,3.440 7.543,3.440 C7.934,3.440 9.947,3.440 9.947,3.440 C9.947,3.440 9.947,0.014 9.947,0.014 C9.947,0.014 6.636,0.001 6.636,0.001 C2.960,0.001 2.124,2.557 2.124,4.193 C2.124,4.193 2.124,6.477 2.124,6.477 C2.124,6.477 -0.002,6.477 -0.002,6.477 C-0.002,6.477 -0.002,10.008 -0.002,10.008 C-0.002,10.008 2.124,10.008 2.124,10.008 C2.124,14.540 2.124,20.000 2.124,20.000 C2.124,20.000 6.595,20.000 6.595,20.000 C6.595,20.000 6.595,14.485 6.595,10.008 C6.595,10.008 9.612,10.008 9.612,10.008 C9.612,10.008 10.003,6.477 10.003,6.477 Z" id="path-1" class="cls-2" fill-rule="evenodd"/>
</svg>
