<svg xmlns="http://www.w3.org/2000/svg" xmlns:xlink="http://www.w3.org/1999/xlink" preserveAspectRatio="xMidYMid" width="22" height="22" viewBox="0 0 22 22">
  <defs>
    <style>

      .cls-2 {
        fill: #444444;
      }
    </style>
  </defs>
  <path d="M-0.000,22.000 C-0.000,22.000 -0.000,-0.000 -0.000,-0.000 C-0.000,-0.000 22.000,-0.000 22.000,-0.000 C22.000,-0.000 22.000,22.000 22.000,22.000 C22.000,22.000 -0.000,22.000 -0.000,22.000 ZM4.000,2.000 C4.000,2.000 2.000,2.000 2.000,2.000 C2.000,2.000 2.000,4.000 2.000,4.000 C2.000,4.000 4.000,4.000 4.000,4.000 C4.000,4.000 4.000,2.000 4.000,2.000 ZM4.000,5.000 C4.000,5.000 2.000,5.000 2.000,5.000 C2.000,5.000 2.000,7.000 2.000,7.000 C2.000,7.000 4.000,7.000 4.000,7.000 C4.000,7.000 4.000,5.000 4.000,5.000 ZM4.000,8.000 C4.000,8.000 2.000,8.000 2.000,8.000 C2.000,8.000 2.000,10.000 2.000,10.000 C2.000,10.000 4.000,10.000 4.000,10.000 C4.000,10.000 4.000,8.000 4.000,8.000 ZM4.000,12.000 C4.000,12.000 2.000,12.000 2.000,12.000 C2.000,12.000 2.000,14.000 2.000,14.000 C2.000,14.000 4.000,14.000 4.000,14.000 C4.000,14.000 4.000,12.000 4.000,12.000 ZM4.000,15.000 C4.000,15.000 2.000,15.000 2.000,15.000 C2.000,15.000 2.000,17.000 2.000,17.000 C2.000,17.000 4.000,17.000 4.000,17.000 C4.000,17.000 4.000,15.000 4.000,15.000 ZM4.000,18.000 C4.000,18.000 2.000,18.000 2.000,18.000 C2.000,18.000 2.000,20.000 2.000,20.000 C2.000,20.000 4.000,20.000 4.000,20.000 C4.000,20.000 4.000,18.000 4.000,18.000 ZM16.000,2.000 C16.000,2.000 6.000,2.000 6.000,2.000 C6.000,2.000 6.000,10.000 6.000,10.000 C6.000,10.000 16.000,10.000 16.000,10.000 C16.000,10.000 16.000,2.000 16.000,2.000 ZM16.000,12.000 C16.000,12.000 6.000,12.000 6.000,12.000 C6.000,12.000 6.000,20.000 6.000,20.000 C6.000,20.000 16.000,20.000 16.000,20.000 C16.000,20.000 16.000,12.000 16.000,12.000 ZM20.000,2.000 C20.000,2.000 18.000,2.000 18.000,2.000 C18.000,2.000 18.000,4.000 18.000,4.000 C18.000,4.000 20.000,4.000 20.000,4.000 C20.000,4.000 20.000,2.000 20.000,2.000 ZM20.000,5.000 C20.000,5.000 18.000,5.000 18.000,5.000 C18.000,5.000 18.000,7.000 18.000,7.000 C18.000,7.000 20.000,7.000 20.000,7.000 C20.000,7.000 20.000,5.000 20.000,5.000 ZM20.000,8.000 C20.000,8.000 18.000,8.000 18.000,8.000 C18.000,8.000 18.000,10.000 18.000,10.000 C18.000,10.000 20.000,10.000 20.000,10.000 C20.000,10.000 20.000,8.000 20.000,8.000 ZM20.000,12.000 C20.000,12.000 18.000,12.000 18.000,12.000 C18.000,12.000 18.000,14.000 18.000,14.000 C18.000,14.000 20.000,14.000 20.000,14.000 C20.000,14.000 20.000,12.000 20.000,12.000 ZM20.000,15.000 C20.000,15.000 18.000,15.000 18.000,15.000 C18.000,15.000 18.000,17.000 18.000,17.000 C18.000,17.000 20.000,17.000 20.000,17.000 C20.000,17.000 20.000,15.000 20.000,15.000 ZM20.000,18.000 C20.000,18.000 18.000,18.000 18.000,18.000 C18.000,18.000 18.000,20.000 18.000,20.000 C18.000,20.000 20.000,20.000 20.000,20.000 C20.000,20.000 20.000,18.000 20.000,18.000 Z" id="path-1" class="cls-2" fill-rule="evenodd"/>
</svg>
