<svg xmlns="http://www.w3.org/2000/svg" xmlns:xlink="http://www.w3.org/1999/xlink" preserveAspectRatio="xMidYMid" width="20" height="20" viewBox="0 0 20 20">
  <defs>
    <style>

      .cls-2 {
        fill: #2d2d2d;
      }
    </style>
  </defs>
  <path d="M19.686,1.800 C19.686,1.800 19.686,2.418 19.686,2.418 C19.686,2.418 19.686,5.231 19.686,5.231 C19.686,5.231 17.534,5.231 17.534,5.231 C17.534,5.231 17.534,3.910 17.534,3.910 C17.534,3.910 14.428,6.954 14.428,6.954 C14.428,6.954 14.393,6.920 14.393,6.920 C14.556,7.385 14.664,7.876 14.664,8.396 C14.664,10.556 13.131,12.355 11.076,12.833 C11.076,12.833 11.076,13.670 11.076,13.670 C11.076,13.670 13.946,13.670 13.946,13.670 C13.946,13.670 13.946,15.780 13.946,15.780 C13.946,15.780 11.076,15.780 11.076,15.780 C11.076,15.780 11.076,20.000 11.076,20.000 C11.076,20.000 8.924,20.000 8.924,20.000 C8.924,20.000 8.924,15.780 8.924,15.780 C8.924,15.780 6.054,15.780 6.054,15.780 C6.054,15.780 6.054,13.670 6.054,13.670 C6.054,13.670 8.924,13.670 8.924,13.670 C8.924,13.670 8.924,12.833 8.924,12.833 C6.869,12.355 5.336,10.556 5.336,8.396 C5.336,7.876 5.444,7.385 5.607,6.920 C5.607,6.920 5.572,6.954 5.572,6.954 C5.572,6.954 4.774,6.171 4.774,6.171 C4.774,6.171 3.585,7.336 3.585,7.336 C3.585,7.336 2.471,6.244 2.471,6.244 C2.471,6.244 3.659,5.079 3.659,5.079 C3.659,5.079 2.466,3.910 2.466,3.910 C2.466,3.910 2.466,5.231 2.466,5.231 C2.466,5.231 0.314,5.231 0.314,5.231 C0.314,5.231 0.314,2.418 0.314,2.418 C0.314,2.418 0.314,1.800 0.314,1.800 C0.314,1.800 -0.009,1.483 -0.009,1.483 C-0.009,1.483 0.314,1.167 0.314,1.167 C0.314,1.167 0.314,0.308 0.314,0.308 C0.314,0.308 1.191,0.308 1.191,0.308 C1.191,0.308 1.513,-0.009 1.513,-0.009 C1.513,-0.009 1.836,0.308 1.836,0.308 C1.836,0.308 2.466,0.308 2.466,0.308 C2.466,0.308 5.336,0.308 5.336,0.308 C5.336,0.308 5.336,2.418 5.336,2.418 C5.336,2.418 3.988,2.418 3.988,2.418 C3.988,2.418 5.182,3.587 5.182,3.587 C5.182,3.587 6.370,2.422 6.370,2.422 C6.370,2.422 7.484,3.514 7.484,3.514 C7.484,3.514 6.296,4.679 6.296,4.679 C6.296,4.679 6.750,5.125 6.750,5.125 C7.590,4.322 8.734,3.824 10.000,3.824 C11.266,3.824 12.410,4.322 13.250,5.125 C13.250,5.125 16.012,2.418 16.012,2.418 C16.012,2.418 14.664,2.418 14.664,2.418 C14.664,2.418 14.664,0.308 14.664,0.308 C14.664,0.308 17.534,0.308 17.534,0.308 C17.534,0.308 18.164,0.308 18.164,0.308 C18.164,0.308 18.487,-0.009 18.487,-0.009 C18.487,-0.009 18.809,0.308 18.809,0.308 C18.809,0.308 19.686,0.308 19.686,0.308 C19.686,0.308 19.686,1.167 19.686,1.167 C19.686,1.167 20.009,1.483 20.009,1.483 C20.009,1.483 19.686,1.800 19.686,1.800 ZM10.000,5.934 C8.613,5.934 7.489,7.036 7.489,8.396 C7.489,9.755 8.613,10.857 10.000,10.857 C11.387,10.857 12.511,9.755 12.511,8.396 C12.511,7.036 11.387,5.934 10.000,5.934 Z" id="path-1" class="cls-2" fill-rule="evenodd"/>
</svg>
