<svg xmlns="http://www.w3.org/2000/svg" xmlns:xlink="http://www.w3.org/1999/xlink" preserveAspectRatio="xMidYMid" width="23" height="20" viewBox="0 0 23 20">
  <defs>
    <style>

      .cls-2 {
        fill: #bb4434;
      }
    </style>
  </defs>
  <path d="M22.522,10.006 C22.522,10.006 19.054,10.006 19.054,10.006 C19.054,10.006 19.054,13.363 19.054,13.363 C19.054,13.620 18.839,13.828 18.575,13.828 C18.575,13.828 17.587,13.828 17.587,13.828 C17.322,13.828 17.106,13.620 17.106,13.363 C17.106,13.363 17.106,10.006 17.106,10.006 C17.106,10.006 13.638,10.006 13.638,10.006 C13.374,10.006 13.158,9.798 13.158,9.542 C13.158,9.542 13.158,8.585 13.158,8.585 C13.158,8.329 13.374,8.120 13.638,8.120 C13.638,8.120 17.106,8.120 17.106,8.120 C17.106,8.120 17.106,4.764 17.106,4.764 C17.106,4.508 17.322,4.299 17.587,4.299 C17.587,4.299 18.575,4.299 18.575,4.299 C18.839,4.299 19.054,4.508 19.054,4.764 C19.054,4.764 19.054,8.120 19.054,8.120 C19.054,8.120 22.522,8.120 22.522,8.120 C22.787,8.120 23.002,8.329 23.002,8.585 C23.002,8.585 23.002,9.542 23.002,9.542 C23.002,9.798 22.787,10.006 22.522,10.006 ZM12.126,1.797 C12.045,1.854 11.946,1.884 11.844,1.884 C11.844,1.884 11.356,1.884 11.356,1.884 C11.986,2.616 12.357,3.659 12.357,4.832 C12.357,6.126 11.680,7.350 10.450,8.282 C9.500,8.999 9.462,9.195 9.462,9.605 C9.473,9.831 10.137,10.564 10.866,11.063 C12.568,12.229 13.202,13.372 13.202,15.281 C13.202,17.270 11.638,18.993 9.220,19.673 C8.444,19.890 7.605,20.001 6.725,20.001 C5.745,20.001 4.802,19.891 3.924,19.676 C2.224,19.261 0.965,18.474 0.379,17.459 C0.127,17.021 -0.002,16.553 -0.002,16.068 C-0.002,15.569 0.122,15.063 0.365,14.563 C1.297,12.641 3.753,11.348 6.473,11.348 C6.501,11.348 6.526,11.348 6.552,11.348 C6.330,10.972 6.222,10.583 6.222,10.171 C6.222,9.967 6.250,9.759 6.306,9.548 C3.452,9.484 1.317,7.462 1.317,4.794 C1.317,2.912 2.872,1.077 5.096,0.335 C5.762,0.114 6.440,-0.001 7.108,-0.001 C7.108,-0.001 13.210,-0.001 13.210,-0.001 C13.418,-0.001 13.602,0.130 13.666,0.321 C13.731,0.513 13.660,0.723 13.491,0.840 C13.491,0.840 12.126,1.797 12.126,1.797 ZM3.159,15.434 C3.159,16.944 4.720,18.128 6.713,18.128 C9.341,18.128 10.673,17.251 10.673,15.521 C10.673,15.357 10.653,15.188 10.611,15.019 C10.434,14.347 9.799,13.928 8.836,13.293 C8.704,13.206 8.566,13.115 8.424,13.020 C8.008,12.897 7.567,12.832 7.115,12.827 C7.115,12.827 7.059,12.827 7.059,12.827 C4.982,12.827 3.159,14.045 3.159,15.434 ZM9.208,5.009 C8.970,3.259 7.680,1.804 6.331,1.766 C6.331,1.766 6.277,1.765 6.277,1.765 C5.799,1.765 5.374,1.954 5.050,2.313 C4.547,2.868 4.335,3.746 4.468,4.723 C4.704,6.470 6.022,7.981 7.343,8.020 C7.343,8.020 7.365,8.020 7.365,8.020 C7.365,8.020 7.365,8.020 7.365,8.020 C7.862,8.020 8.282,7.830 8.607,7.471 C9.116,6.909 9.341,5.989 9.208,5.009 Z" id="path-1" class="cls-2" fill-rule="evenodd"/>
</svg>
