<svg xmlns="http://www.w3.org/2000/svg" xmlns:xlink="http://www.w3.org/1999/xlink" preserveAspectRatio="xMidYMid" width="22" height="19" viewBox="0 0 22 19">
  <defs>
    <style>

      .cls-2 {
        fill: #ffffff;
      }
    </style>
  </defs>
  <path d="M17.926,19.000 C17.926,19.000 17.926,17.417 17.926,17.417 C17.926,17.417 17.905,17.417 17.905,17.417 C17.913,17.285 17.926,17.155 17.926,17.021 C17.926,17.021 17.926,10.292 17.926,10.292 C17.926,10.292 17.926,8.313 17.926,8.313 C17.926,4.596 14.825,1.583 11.000,1.583 C7.175,1.583 4.074,4.596 4.074,8.313 C4.074,8.313 4.074,10.292 4.074,10.292 C4.074,10.292 4.074,17.021 4.074,17.021 C4.074,17.155 4.087,17.285 4.095,17.417 C4.095,17.417 4.074,17.417 4.074,17.417 C4.074,17.417 4.074,19.000 4.074,19.000 C4.074,19.000 0.000,18.934 0.000,14.646 C0.000,12.214 1.310,11.142 2.444,10.667 C2.444,10.667 2.444,8.313 2.444,8.313 C2.444,3.722 6.275,0.000 11.000,0.000 C15.725,0.000 19.556,3.722 19.556,8.313 C19.556,8.313 19.556,10.667 19.556,10.667 C20.690,11.142 22.000,12.214 22.000,14.646 C22.000,18.934 17.926,19.000 17.926,19.000 ZM5.704,19.000 C5.704,19.000 4.889,19.000 4.889,19.000 C4.889,19.000 4.889,10.292 4.889,10.292 C4.889,10.292 5.704,10.292 5.704,10.292 C5.704,10.292 5.704,19.000 5.704,19.000 ZM17.111,19.000 C17.111,19.000 16.296,19.000 16.296,19.000 C16.296,19.000 16.296,10.292 16.296,10.292 C16.296,10.292 17.111,10.292 17.111,10.292 C17.111,10.292 17.111,19.000 17.111,19.000 Z" id="path-1" class="cls-2" fill-rule="evenodd"/>
</svg>
