<?xml version="1.0" encoding="utf-8"?>
<!-- Generator: Adobe Illustrator 22.1.0, SVG Export Plug-In . SVG Version: 6.00 Build 0)  -->
<svg version="1.1" id="Layer_1" xmlns="http://www.w3.org/2000/svg" xmlns:xlink="http://www.w3.org/1999/xlink" x="0px" y="0px"
	 viewBox="0 0 288 288" enable-background="new 0 0 288 288" xml:space="preserve">
<g>
	<path fill="#FFFFFF" d="M262,193.5l-3.1,7.5l-28.3,5c-4.4,16.7-19.6,29-37.7,29v4.9c0,2.8-2.1,4.9-4.9,4.9h-9.8
		c-2.8,0-4.9-2.1-4.9-4.9v-88c0-2.8,2.1-4.9,4.9-4.9h9.8c2.8,0,4.9,2.1,4.9,4.9v4.9c14.7,0,27.3,8.1,34.1,20l10.4-1.8
		c2.9-9.5,4.4-19.3,4.4-29.5c0-46.1-45.7-86.5-97.8-86.5c-52.1,0-97.8,40.3-97.8,86.5c0,10.2,1.5,20,4.4,29.5l10.4,1.8
		c6.7-11.9,19.4-20,34.1-20v-4.9c0-2.8,2.1-4.9,4.9-4.9h9.8c2.8,0,4.9,2.1,4.9,4.9v88c0,2.8-2.1,4.9-4.9,4.9H100
		c-2.8,0-4.9-2.1-4.9-4.9v-4.9c-18.2,0-33.3-12.4-37.7-29l-28.3-5l-3.1-7.5c-6.1-15.1-9.2-31.3-9.2-48C16.9,82.7,75.1,29.7,144,29.7
		c68.9,0,127.1,53,127.1,115.8C271.1,162.2,268.1,178.4,262,193.5z"/>
</g>
</svg>
