<svg xmlns="http://www.w3.org/2000/svg" xmlns:xlink="http://www.w3.org/1999/xlink" preserveAspectRatio="xMidYMid" width="22" height="16" viewBox="0 0 22 16">
  <defs>
    <style>

      .cls-2 {
        fill: #db4545;
      }
    </style>
  </defs>
  <path d="M9.568,15.561 C9.568,15.561 2.408,11.326 1.271,9.358 C0.134,7.390 -0.257,6.248 0.169,4.297 C0.596,2.347 1.892,1.266 1.892,1.266 C1.892,1.266 3.012,0.053 5.357,0.000 C9.408,0.000 10.474,2.558 10.474,2.558 C10.474,2.558 11.528,-0.066 15.679,0.027 C18.024,0.080 19.144,1.292 19.144,1.292 C19.144,1.292 20.414,2.347 20.840,4.297 C21.267,6.248 20.876,7.390 19.739,9.358 C18.602,11.326 11.442,15.561 11.442,15.561 C11.442,15.561 10.607,16.563 9.568,15.561 Z" id="path-1" class="cls-2" fill-rule="evenodd"/>
</svg>
