<?xml version="1.0" encoding="utf-8"?>
<!-- Generator: Adobe Illustrator 22.1.0, SVG Export Plug-In . SVG Version: 6.00 Build 0)  -->
<svg version="1.1" id="Layer_1" xmlns="http://www.w3.org/2000/svg" xmlns:xlink="http://www.w3.org/1999/xlink" x="0px" y="0px"
	 viewBox="0 0 288 288" style="enable-background:new 0 0 288 288;" xml:space="preserve">
<style type="text/css">
	.st0{fill:#FFFFFF;}
</style>
<g>
	<path class="st0" d="M282.3,109.1c0-5.6-1.8-9.2-6.7-12.1C236.9,73.6,198.4,50,159.8,26.6c-17.6-10.7-13.1-10.9-30.8-0.1
		c-38.8,23.6-77.6,47.4-116.5,71c-3.6,2.2-6.3,4.5-6.3,9.3c0.1,51.2,0.1,102.3,0.1,153.5c0,9.4,2.4,11.8,11.8,11.8c42,0,84,0,126,0
		c42.3,0,84.7,0,127,0c8.6,0,10.9-2.4,10.9-11C282.2,210.4,282.1,159.7,282.3,109.1z M85.2,70.8c18.7-11.4,37.4-23,56.3-34.3
		c1.4-0.9,4.2-1.1,5.6-0.3C184,58.5,220.7,81,257.5,103.5c0.8,0.5,1.5,1.2,2.6,2c-11,6.8-21.7,13.3-33.2,20.4c0-6.4,0-22.9,0-28.3
		c-0.1-7.9-2.6-10.6-10.4-10.6c-48.1,0-96.3,0-144.4,0c-7.4,0-9.8,2.4-9.9,9.9c-0.1,5.5-0.1,22-0.1,27.5c0,0.3-0.3,0.5-0.8,1.3
		c-10.9-6.6-21.8-13.3-33-20.1C47.5,93.8,66.4,82.3,85.2,70.8z M211.7,133.5c0,1.1-1.5,2.4-2.7,3.1c-20.7,12.7-41.4,25.4-62.2,37.9
		c-1.3,0.8-3.9,0.7-5.2-0.1c-20.7-12.4-41.3-25-61.8-37.6c-1.2-0.7-2.6-2.4-2.7-3.6c-0.3-6.6-0.1-24.2-0.1-31.1c45,0,89.5,0,134.8,0
		C211.8,108.9,211.9,126.7,211.7,133.5z M266.9,256.8c-81.8,0-163.2,0-245,0c0-45.7,0-91.3,0-137.6c2.1,1.2,3.8,2.1,5.4,3.1
		c36.5,22.3,73.1,44.5,109.6,67c5.3,3.3,9.5,3.1,14.7-0.1c36.8-22.6,73.6-44.9,110.5-67.4c1.4-0.9,2.8-1.7,4.9-2.8
		C266.9,165.2,266.9,210.8,266.9,256.8z"/>
	<path class="st0" d="M132.9,137.8c0.3,0.3,0.4,0.7,0.4,1.1l-1.7,9.6c-0.1,0.8,0.1,1.7,0.6,2.3c0.9,1,2.3,1.3,3.5,0.7l8.6-4.5
		c0.4-0.2,0.8-0.2,1.2,0l8.7,4.5c0.4,0.2,0.9,0.3,1.3,0.3c0.8,0,1.6-0.4,2.2-1c0.5-0.6,0.8-1.5,0.6-2.3l-1.7-9.6
		c-0.1-0.4,0.1-0.8,0.4-1.1l7-6.8c0.8-0.8,1.1-1.9,0.7-2.9c-0.3-1-1.2-1.8-2.3-1.9l-9.7-1.4c-0.4-0.1-0.8-0.3-1-0.7l-4.3-8.8
		c-0.5-1-1.5-1.6-2.6-1.6c-1.1,0-2.1,0.6-2.6,1.6l-4.3,8.8c-0.2,0.4-0.5,0.6-1,0.7l-9.7,1.4c-1.1,0.2-2,0.9-2.3,1.9
		c-0.3,1-0.1,2.2,0.7,2.9L132.9,137.8z"/>
</g>
</svg>
