<svg xmlns="http://www.w3.org/2000/svg" xmlns:xlink="http://www.w3.org/1999/xlink" preserveAspectRatio="xMidYMid" width="18" height="18" viewBox="0 0 18 18">
  <defs>
    <style>

      .cls-2 {
        fill: #444444;
      }
    </style>
  </defs>
  <path d="M18.000,7.374 C18.000,7.374 18.000,16.491 18.000,16.491 C18.000,17.872 16.506,17.993 16.506,17.993 C16.506,17.993 1.437,17.993 1.437,17.993 C-0.446,17.993 0.073,16.491 0.073,16.491 C0.073,16.491 0.073,6.909 0.073,6.909 C0.073,5.467 1.581,5.766 1.581,5.766 C1.581,5.766 2.336,5.766 2.336,5.766 C2.336,2.428 5.261,-0.007 8.870,-0.007 C12.479,-0.007 15.599,2.428 15.599,5.766 C15.599,5.766 16.506,5.752 16.506,5.752 C18.130,5.752 18.000,7.374 18.000,7.374 ZM7.852,12.140 C8.090,12.215 7.076,15.883 7.076,15.883 C7.076,15.883 10.240,15.863 10.240,15.863 C10.240,15.863 9.324,12.157 9.448,12.114 C10.332,11.802 10.961,11.010 10.961,10.081 C10.961,8.881 9.908,7.908 8.610,7.908 C7.312,7.908 6.260,8.881 6.260,10.081 C6.260,11.037 6.926,11.848 7.852,12.140 ZM9.045,1.367 C6.211,1.367 3.914,3.131 3.914,5.752 C3.914,5.752 14.177,5.752 14.177,5.752 C14.177,3.131 11.879,1.367 9.045,1.367 Z" id="path-1" class="cls-2" fill-rule="evenodd"/>
</svg>
