<svg xmlns="http://www.w3.org/2000/svg" xmlns:xlink="http://www.w3.org/1999/xlink" preserveAspectRatio="xMidYMid" width="20" height="20" viewBox="0 0 20 20">
  <defs>
    <style>

      .cls-2 {
        fill: #2d2d2d;
      }
    </style>
  </defs>
  <path d="M19.457,6.957 C19.457,6.957 15.595,10.824 15.595,10.824 C14.884,11.536 13.732,11.536 13.021,10.824 C13.021,10.824 12.248,10.050 12.248,10.050 C12.248,10.050 13.569,8.728 13.569,8.728 C14.128,9.057 14.858,8.984 15.338,8.504 C15.338,8.504 17.011,6.828 17.011,6.828 C17.580,6.258 17.580,5.335 17.011,4.765 C17.011,4.765 15.338,3.090 15.338,3.090 C14.769,2.520 13.847,2.520 13.278,3.090 C13.278,3.090 11.605,4.765 11.605,4.765 C11.173,5.198 11.070,5.835 11.294,6.366 C11.294,6.366 9.931,7.730 9.931,7.730 C9.931,7.730 9.159,6.957 9.159,6.957 C8.448,6.245 8.448,5.091 9.159,4.379 C9.159,4.379 13.021,0.512 13.021,0.512 C13.732,-0.200 14.884,-0.200 15.595,0.512 C15.595,0.512 19.457,4.379 19.457,4.379 C20.168,5.091 20.168,6.245 19.457,6.957 ZM11.605,6.828 C11.605,6.828 11.991,6.441 11.991,6.441 C12.346,6.085 12.923,6.085 13.278,6.441 C13.278,6.441 13.536,6.699 13.536,6.699 C13.891,7.055 13.891,7.632 13.536,7.988 C13.536,7.988 13.149,8.375 13.149,8.375 C13.149,8.375 11.862,9.664 11.862,9.664 C11.862,9.664 9.803,11.726 9.803,11.726 C9.803,11.726 8.387,13.144 8.387,13.144 C8.387,13.144 7.872,13.659 7.872,13.659 C7.516,14.015 6.940,14.015 6.584,13.659 C6.584,13.659 6.327,13.402 6.327,13.402 C5.972,13.046 5.972,12.469 6.327,12.113 C6.327,12.113 6.842,11.597 6.842,11.597 C6.842,11.597 8.258,10.179 8.258,10.179 C8.258,10.179 10.317,8.117 10.317,8.117 C10.317,8.117 11.605,6.828 11.605,6.828 ZM4.654,11.726 C4.654,11.726 2.980,13.402 2.980,13.402 C2.411,13.971 2.540,14.766 3.109,15.335 C3.109,15.335 4.782,17.011 4.782,17.011 C5.351,17.580 6.144,17.709 6.713,17.140 C6.713,17.140 8.387,15.464 8.387,15.464 C8.866,14.984 8.940,14.252 8.610,13.693 C8.610,13.693 10.060,12.242 10.060,12.242 C10.060,12.242 10.832,13.015 10.832,13.015 C11.543,13.727 11.543,14.881 10.832,15.593 C10.832,15.593 6.971,19.460 6.971,19.460 C6.260,20.172 5.107,20.172 4.396,19.460 C4.396,19.460 0.534,15.593 0.534,15.593 C-0.177,14.881 -0.177,13.727 0.534,13.015 C0.534,13.015 4.396,9.148 4.396,9.148 C5.107,8.436 6.260,8.436 6.971,9.148 C6.971,9.148 7.743,9.921 7.743,9.921 C7.743,9.921 6.251,11.415 6.251,11.415 C5.721,11.190 5.086,11.293 4.654,11.726 Z" id="path-1" class="cls-2" fill-rule="evenodd"/>
</svg>
