<svg xmlns="http://www.w3.org/2000/svg" xmlns:xlink="http://www.w3.org/1999/xlink" preserveAspectRatio="xMidYMid" width="25" height="24" viewBox="0 0 25 24">
  <defs>
    <style>

      .cls-2 {
        fill: #497c9c;
      }
    </style>
  </defs>
  <path d="M22.421,23.998 C22.421,23.998 1.792,23.998 1.792,23.998 C0.804,23.998 0.003,23.227 0.003,22.279 C0.003,22.279 0.003,1.722 0.003,1.722 C0.003,0.773 0.804,0.003 1.792,0.003 C1.792,0.003 22.421,0.003 22.421,0.003 C23.409,0.003 24.210,0.773 24.210,1.722 C24.210,1.722 24.210,22.279 24.210,22.279 C24.210,23.227 23.409,23.998 22.421,23.998 ZM3.684,20.089 C3.684,20.089 7.340,20.089 7.340,20.089 C7.340,20.089 7.340,9.255 7.340,9.255 C7.340,9.255 3.684,9.255 3.684,9.255 C3.684,9.255 3.684,20.089 3.684,20.089 ZM5.537,4.031 C4.287,4.031 3.468,4.840 3.468,5.903 C3.468,6.942 4.262,7.775 5.488,7.775 C5.488,7.775 5.513,7.775 5.513,7.775 C6.787,7.775 7.582,6.942 7.582,5.903 C7.557,4.840 6.787,4.031 5.537,4.031 ZM20.524,13.877 C20.524,10.548 18.721,8.999 16.316,8.999 C14.375,8.999 13.506,10.050 13.020,10.788 C13.020,10.788 13.020,9.255 13.020,9.255 C13.020,9.255 9.364,9.255 9.364,9.255 C9.412,10.270 9.364,20.089 9.364,20.089 C9.364,20.089 13.020,20.089 13.020,20.089 C13.020,20.089 13.020,14.038 13.020,14.038 C13.020,13.714 13.044,13.391 13.140,13.160 C13.405,12.512 14.007,11.842 15.016,11.842 C16.340,11.842 16.869,12.836 16.869,14.292 C16.869,14.292 16.869,20.089 16.869,20.089 C16.869,20.089 20.524,20.089 20.524,20.089 C20.524,20.089 20.524,13.877 20.524,13.877 ZM12.996,10.826 C13.004,10.813 13.013,10.801 13.020,10.788 C13.020,10.788 13.020,10.826 13.020,10.826 C13.020,10.826 12.996,10.826 12.996,10.826 Z" id="path-1" class="cls-2" fill-rule="evenodd"/>
</svg>
