<svg xmlns="http://www.w3.org/2000/svg" xmlns:xlink="http://www.w3.org/1999/xlink" preserveAspectRatio="xMidYMid" width="15" height="18" viewBox="0 0 15 18">
  <defs>
    <style>

      .cls-2 {
        fill: #444444;
      }
    </style>
  </defs>
  <path d="M7.518,18.006 C7.518,18.006 -0.007,13.451 -0.007,9.780 C-0.007,7.745 1.183,5.732 3.430,5.421 C3.430,5.421 3.430,3.991 3.430,3.991 C3.430,1.787 5.262,0.000 7.521,0.000 C9.781,0.000 11.612,1.787 11.612,3.991 C11.612,3.991 11.612,5.422 11.612,5.422 C13.781,5.739 14.998,7.712 14.998,9.780 C14.998,13.495 7.518,18.006 7.518,18.006 ZM6.456,13.968 C6.456,13.968 8.544,13.968 8.544,13.968 C8.544,13.968 7.658,11.654 7.658,11.654 C8.155,11.587 8.544,11.187 8.544,10.684 C8.544,10.133 8.086,9.686 7.521,9.686 C6.957,9.686 6.499,10.133 6.499,10.684 C6.499,11.163 6.852,11.544 7.313,11.641 C7.313,11.641 6.456,13.968 6.456,13.968 ZM10.249,3.991 C10.249,2.522 9.028,1.330 7.521,1.330 C6.015,1.330 4.794,2.522 4.794,3.991 C4.794,3.991 4.794,5.446 4.794,5.446 C6.669,5.851 7.518,7.619 7.518,7.619 C7.518,7.619 8.275,5.830 10.249,5.441 C10.249,5.441 10.249,3.991 10.249,3.991 Z" id="path-1" class="cls-2" fill-rule="evenodd"/>
</svg>
