<?xml version="1.0" encoding="utf-8"?>
<!-- Generator: Adobe Illustrator 22.1.0, SVG Export Plug-In . SVG Version: 6.00 Build 0)  -->
<svg version="1.1" id="Layer_1" xmlns="http://www.w3.org/2000/svg" xmlns:xlink="http://www.w3.org/1999/xlink" x="0px" y="0px"
	 viewBox="0 0 288 288" enable-background="new 0 0 288 288" xml:space="preserve">
<g>
	<path fill="#FFFFFF" d="M204.8,146c0,3.4-1.2,6.3-3.5,8.6l-85.1,85.1c-2.4,2.4-5.2,3.5-8.6,3.5c-3.4,0-6.3-1.2-8.6-3.5
		c-2.4-2.4-3.5-5.2-3.5-8.6v-48.6H26.5c-3.4,0-6.3-1.2-8.6-3.5c-2.4-2.4-3.5-5.2-3.5-8.6v-48.6c0-3.4,1.2-6.2,3.5-8.6
		c2.4-2.4,5.2-3.5,8.6-3.5h68.9V61c0-3.4,1.2-6.2,3.5-8.6c2.4-2.4,5.2-3.5,8.6-3.5c3.4,0,6.2,1.2,8.6,3.5l85.1,85.1
		C203.6,139.8,204.8,142.7,204.8,146z M259.4,225c9.4-9.4,14.2-20.9,14.2-34.4V93.4c0-13.5-4.7-25-14.2-34.4
		c-9.5-9.4-20.9-14.2-34.4-14.2h-42.5c-1.7,0-3.1,0.6-4.3,1.8c-1.2,1.2-1.8,2.6-1.8,4.3v20.3c0,1.7,0.6,3.1,1.8,4.3
		c1.2,1.2,2.6,1.8,4.3,1.8H225c4.4,0,8.2,1.6,11.4,4.8c3.2,3.2,4.8,7,4.8,11.4v97.2c0,4.4-1.6,8.2-4.8,11.4c-3.2,3.2-7,4.8-11.4,4.8
		h-42.5c-1.7,0-3.1,0.6-4.3,1.8c-1.2,1.2-1.8,2.6-1.8,4.3v20.3c0,1.7,0.6,3.1,1.8,4.3c1.2,1.2,2.6,1.8,4.3,1.8H225
		C238.5,239.2,250,234.5,259.4,225z"/>
</g>
</svg>
