<svg xmlns="http://www.w3.org/2000/svg" xmlns:xlink="http://www.w3.org/1999/xlink" preserveAspectRatio="xMidYMid" width="56" height="56" viewBox="0 0 56 56">
  <defs>
    <style>

      .cls-2 {
        fill: #221e1f;
      }
    </style>
  </defs>
  <path d="M55.945,55.171 C55.936,55.223 55.955,55.269 55.941,55.317 C55.931,55.352 55.893,55.366 55.878,55.398 C55.830,55.508 55.754,55.594 55.672,55.680 C55.615,55.737 55.572,55.790 55.505,55.830 C55.476,55.847 55.462,55.877 55.433,55.893 C55.294,55.961 55.141,55.994 54.992,55.994 C54.992,55.994 1.006,55.994 1.006,55.994 C0.857,55.994 0.704,55.961 0.565,55.893 C0.537,55.877 0.522,55.847 0.493,55.830 C0.426,55.790 0.383,55.737 0.331,55.680 C0.244,55.594 0.173,55.508 0.120,55.398 C0.106,55.366 0.072,55.352 0.058,55.317 C0.043,55.269 0.067,55.223 0.058,55.171 C0.043,55.108 0.005,55.057 0.005,54.991 C0.005,54.991 0.005,21.251 0.005,21.251 C0.005,20.970 0.153,20.731 0.350,20.543 C0.374,20.522 0.364,20.479 0.388,20.459 C0.388,20.459 6.752,15.526 6.752,15.526 C6.752,15.526 6.752,1.004 6.752,1.004 C6.752,0.451 7.202,-0.000 7.757,-0.000 C7.757,-0.000 48.241,-0.000 48.241,-0.000 C48.797,-0.000 49.242,0.451 49.242,1.004 C49.242,1.004 49.242,15.526 49.242,15.526 C49.242,15.526 55.605,20.459 55.605,20.459 C55.634,20.479 55.624,20.522 55.648,20.543 C55.845,20.731 55.998,20.970 55.998,21.251 C55.998,21.251 55.998,54.991 55.998,54.991 C55.998,55.057 55.955,55.108 55.945,55.171 ZM52.053,53.987 C52.053,53.987 33.235,39.389 33.235,39.389 C33.235,39.389 28.614,42.968 28.614,42.968 C28.432,43.108 28.212,43.178 28.001,43.178 C27.781,43.178 27.561,43.108 27.384,42.968 C27.384,42.968 22.763,39.389 22.763,39.389 C22.763,39.389 3.941,53.987 3.941,53.987 C3.941,53.987 52.053,53.987 52.053,53.987 ZM6.752,18.069 C6.752,18.069 2.648,21.251 2.648,21.251 C2.648,21.251 6.752,24.434 6.752,24.434 C6.752,24.434 6.752,18.069 6.752,18.069 ZM2.011,23.304 C2.011,23.304 2.011,52.938 2.011,52.938 C2.011,52.938 21.121,38.118 21.121,38.118 C21.121,38.118 2.011,23.304 2.011,23.304 ZM47.236,16.016 C47.236,16.016 47.236,2.008 47.236,2.008 C47.236,2.008 8.763,2.008 8.763,2.008 C8.763,2.008 8.763,16.016 8.763,16.016 C8.763,16.016 8.763,25.992 8.763,25.992 C8.763,25.992 20.944,35.438 20.944,35.438 C20.944,35.438 28.001,40.904 28.001,40.904 C28.001,40.904 35.050,35.438 35.050,35.438 C35.050,35.438 47.236,25.992 47.236,25.992 C47.236,25.992 47.236,16.016 47.236,16.016 ZM49.242,18.069 C49.242,18.069 49.242,24.434 49.242,24.434 C49.242,24.434 53.350,21.251 53.350,21.251 C53.350,21.251 49.242,18.069 49.242,18.069 ZM53.987,23.304 C53.987,23.304 34.873,38.118 34.873,38.118 C34.873,38.118 53.987,52.938 53.987,52.938 C53.987,52.938 53.987,23.304 53.987,23.304 ZM13.503,21.251 C13.503,20.701 13.953,20.246 14.508,20.246 C14.508,20.246 41.499,20.246 41.499,20.246 C42.050,20.246 42.505,20.701 42.505,21.251 C42.505,21.805 42.050,22.257 41.499,22.257 C41.499,22.257 14.508,22.257 14.508,22.257 C13.953,22.257 13.503,21.805 13.503,21.251 ZM28.001,15.507 C28.001,15.507 14.508,15.507 14.508,15.507 C13.953,15.507 13.503,15.056 13.503,14.503 C13.503,13.949 13.953,13.497 14.508,13.497 C14.508,13.497 28.001,13.497 28.001,13.497 C28.552,13.497 29.002,13.949 29.002,14.503 C29.002,15.056 28.552,15.507 28.001,15.507 ZM28.001,8.640 C28.001,8.640 14.508,8.640 14.508,8.640 C13.953,8.640 13.503,8.189 13.503,7.635 C13.503,7.083 13.953,6.631 14.508,6.631 C14.508,6.631 28.001,6.631 28.001,6.631 C28.552,6.631 29.002,7.083 29.002,7.635 C29.002,8.189 28.552,8.640 28.001,8.640 Z" id="path-1" class="cls-2" fill-rule="evenodd"/>
</svg>
