<svg xmlns="http://www.w3.org/2000/svg" xmlns:xlink="http://www.w3.org/1999/xlink" preserveAspectRatio="xMidYMid" width="13" height="20" viewBox="0 0 13 20">
  <defs>
    <style>

      .cls-2 {
        fill: #ffffff;
        filter: url(#color-overlay-1);
      }
    </style>

    <filter id="color-overlay-1" filterUnits="userSpaceOnUse">
      <feFlood flood-color="#444444" flood-opacity="1"/>
      <feComposite operator="in" in2="SourceGraphic"/>
      <feBlend mode="normal" in2="SourceGraphic" result="colorOverlay"/>
    </filter>
  </defs>
  <path d="M2.677,6.298 C2.677,4.089 4.390,2.298 6.502,2.298 C8.615,2.298 10.328,4.089 10.328,6.298 C10.328,8.508 8.615,10.299 6.502,10.299 C4.390,10.299 2.677,8.508 2.677,6.298 ZM-0.000,6.799 C-0.000,8.472 1.940,11.999 1.940,11.999 C1.940,11.999 6.502,20.000 6.502,20.000 C6.502,20.000 10.803,11.999 10.803,11.999 C10.803,11.999 13.005,8.447 13.005,6.799 C13.005,3.042 10.094,-0.002 6.502,-0.002 C2.911,-0.002 -0.000,3.042 -0.000,6.799 Z" id="path-1" class="cls-2" fill-rule="evenodd"/>
</svg>
