<svg xmlns="http://www.w3.org/2000/svg" xmlns:xlink="http://www.w3.org/1999/xlink" preserveAspectRatio="xMidYMid" width="11" height="21" viewBox="0 0 11 21">
  <defs>
    <style>

      .cls-2 {
        fill: #2d2d2d;
      }
    </style>
  </defs>
  <path d="M6.162,17.307 C6.162,17.307 6.162,19.476 6.162,19.476 C8.358,19.593 10.056,20.312 10.056,20.980 C10.056,20.998 1.049,20.998 1.049,20.980 C1.049,20.336 2.622,19.641 4.701,19.486 C4.701,19.486 4.701,17.298 4.701,17.298 C2.047,16.923 0.000,14.691 0.000,11.967 C0.000,11.967 0.000,10.885 0.000,10.885 C0.000,10.885 0.731,10.885 0.731,10.885 C0.731,10.885 0.731,11.967 0.731,11.967 C0.731,14.555 2.855,16.653 5.476,16.654 C5.476,16.654 5.479,16.654 5.479,16.654 C8.100,16.653 10.270,14.555 10.270,11.967 C10.270,11.967 10.270,10.885 10.270,10.885 C10.270,10.885 11.000,10.885 11.000,10.885 C11.000,10.885 11.000,11.967 11.000,11.967 C11.000,14.722 8.860,16.971 6.162,17.307 ZM5.477,15.888 C3.258,15.888 1.460,14.112 1.460,11.922 C1.460,11.922 1.460,10.885 1.460,10.885 C1.460,10.885 9.539,10.885 9.539,10.885 C9.539,10.885 9.539,11.922 9.539,11.922 C9.539,14.112 7.695,15.888 5.477,15.888 ZM1.460,3.957 C1.460,1.767 3.258,-0.009 5.477,-0.009 C7.695,-0.009 9.539,1.767 9.539,3.957 C9.539,3.957 9.539,10.164 9.539,10.164 C9.539,10.164 1.460,10.164 1.460,10.164 C1.460,10.164 1.460,3.957 1.460,3.957 Z" id="path-1" class="cls-2" fill-rule="evenodd"/>
</svg>
