<svg xmlns="http://www.w3.org/2000/svg" xmlns:xlink="http://www.w3.org/1999/xlink" preserveAspectRatio="xMidYMid" width="15" height="16" viewBox="0 0 15 16">
  <defs>
    <style>

      .cls-2 {
        fill: #ffffff;
      }
    </style>
  </defs>
  <path d="M-0.009,7.999 C-0.009,7.999 0.872,7.081 0.872,7.081 C0.872,7.081 7.499,11.470 7.499,11.470 C7.499,11.470 14.115,7.062 14.115,7.062 C14.115,7.062 15.008,7.999 15.008,7.999 C15.008,7.999 7.499,13.162 7.499,13.162 C7.499,13.162 -0.009,7.999 -0.009,7.999 ZM-0.009,5.155 C-0.009,5.155 7.499,-0.008 7.499,-0.008 C7.499,-0.008 15.008,5.155 15.008,5.155 C15.008,5.155 7.499,10.318 7.499,10.318 C7.499,10.318 -0.009,5.155 -0.009,5.155 ZM7.499,14.314 C7.499,14.314 14.115,9.906 14.115,9.906 C14.115,9.906 15.008,10.843 15.008,10.843 C15.008,10.843 7.499,16.006 7.499,16.006 C7.499,16.006 -0.009,10.843 -0.009,10.843 C-0.009,10.843 0.872,9.925 0.872,9.925 C0.872,9.925 7.499,14.314 7.499,14.314 Z" id="path-1" class="cls-2" fill-rule="evenodd"/>
</svg>
