<svg xmlns="http://www.w3.org/2000/svg" xmlns:xlink="http://www.w3.org/1999/xlink" preserveAspectRatio="xMidYMid" width="18" height="18" viewBox="0 0 18 18">
  <defs>
    <style>

      .cls-2 {
        fill: #444444;
      }
    </style>
  </defs>
  <path d="M13.063,8.958 C12.369,9.650 9.944,9.996 9.944,9.996 C9.944,9.996 8.022,8.077 8.022,8.077 C8.022,8.077 8.368,5.591 9.030,4.931 C9.691,4.270 13.976,-0.010 13.976,-0.010 C13.976,-0.010 15.992,2.004 15.992,2.004 C15.992,2.004 18.009,4.018 18.009,4.018 C18.009,4.018 13.756,8.266 13.063,8.958 ZM7.405,15.579 C7.405,15.579 0.490,18.006 0.490,18.006 C0.490,18.006 3.571,14.920 3.571,14.920 C4.117,15.150 5.096,15.124 5.541,14.680 C6.127,14.095 6.096,13.115 5.510,12.530 C4.924,11.945 3.961,11.931 3.375,12.517 C2.939,12.952 2.886,13.873 3.099,14.412 C3.099,14.412 -0.010,17.528 -0.010,17.528 C-0.010,17.528 2.317,10.453 2.317,10.453 C2.317,10.453 6.856,8.025 6.856,8.025 C6.856,8.025 9.924,11.048 9.924,11.048 C9.924,11.048 7.405,15.579 7.405,15.579 Z" id="path-1" class="cls-2" fill-rule="evenodd"/>
</svg>
