<svg xmlns="http://www.w3.org/2000/svg" xmlns:xlink="http://www.w3.org/1999/xlink" preserveAspectRatio="xMidYMid" width="16" height="21" viewBox="0 0 16 21">
  <defs>
    <style>

      .cls-2 {
        fill: #bb3131;
      }
    </style>
  </defs>
  <path d="M8.484,0.006 C2.847,0.006 0.005,3.919 0.005,7.183 C0.005,9.159 0.777,10.916 2.434,11.571 C2.706,11.679 2.950,11.575 3.028,11.284 C3.083,11.083 3.213,10.574 3.271,10.361 C3.350,10.074 3.320,9.973 3.100,9.722 C2.622,9.176 2.317,8.470 2.317,7.469 C2.317,4.565 4.560,1.967 8.158,1.967 C11.345,1.967 13.095,3.852 13.095,6.369 C13.095,9.681 11.581,12.477 9.333,12.477 C8.092,12.477 7.163,11.483 7.461,10.264 C7.818,8.809 8.508,7.238 8.508,6.188 C8.508,5.247 7.987,4.463 6.908,4.463 C5.640,4.463 4.620,5.734 4.620,7.437 C4.620,8.521 4.999,9.255 4.999,9.255 C4.999,9.255 3.700,14.582 3.473,15.515 C3.019,17.373 3.404,19.650 3.437,19.880 C3.456,20.017 3.637,20.049 3.719,19.946 C3.836,19.799 5.347,17.992 5.861,16.187 C6.007,15.675 6.695,13.028 6.695,13.028 C7.108,13.790 8.312,14.460 9.594,14.460 C13.408,14.460 15.995,11.094 15.995,6.588 C15.995,3.180 13.014,0.006 8.484,0.006 Z" id="path-1" class="cls-2" fill-rule="evenodd"/>
</svg>
