<svg xmlns="http://www.w3.org/2000/svg" xmlns:xlink="http://www.w3.org/1999/xlink" preserveAspectRatio="xMidYMid" width="21" height="21" viewBox="0 0 21 21">
  <defs>
    <style>

      .cls-2 {
        fill: #2d2d2d;
      }
    </style>
  </defs>
  <path d="M19.942,9.175 C19.942,9.175 9.600,20.039 9.600,20.039 C9.028,20.639 7.117,19.747 7.117,19.747 C7.117,19.747 19.527,6.709 19.527,6.709 C19.527,6.709 20.513,8.575 19.942,9.175 ZM12.873,9.349 C12.302,9.949 11.352,9.972 10.752,9.401 C10.152,8.830 10.129,7.881 10.700,7.281 C10.700,7.281 16.216,1.486 16.216,1.486 C16.787,0.886 17.736,0.862 18.336,1.434 C18.936,2.005 18.960,2.954 18.389,3.554 C18.389,3.554 12.873,9.349 12.873,9.349 ZM0.184,11.077 C0.184,11.077 10.526,0.211 10.526,0.211 C11.097,-0.389 13.008,0.503 13.008,0.503 C13.008,0.503 0.598,13.542 0.598,13.542 C0.598,13.542 -0.388,11.676 0.184,11.077 ZM7.253,10.901 C7.824,10.302 8.773,10.279 9.373,10.850 C9.973,11.420 9.997,12.371 9.425,12.971 C9.425,12.971 3.910,18.764 3.910,18.764 C3.339,19.365 2.389,19.388 1.789,18.817 C1.189,18.246 1.166,17.296 1.737,16.696 C1.737,16.696 7.253,10.901 7.253,10.901 Z" id="path-1" class="cls-2" fill-rule="evenodd"/>
</svg>
