<svg xmlns="http://www.w3.org/2000/svg" xmlns:xlink="http://www.w3.org/1999/xlink" preserveAspectRatio="xMidYMid" width="21" height="20" viewBox="0 0 21 20">
  <defs>
    <style>

      .cls-2 {
        fill: #444444;
      }
    </style>
  </defs>
  <path d="M8.000,13.000 C8.000,13.000 8.000,7.000 8.000,7.000 C8.000,7.000 13.000,9.986 13.000,9.986 C13.000,9.986 8.011,12.994 8.011,12.994 C8.011,12.994 8.000,13.000 8.000,13.000 ZM17.959,10.575 C17.959,10.575 14.919,7.498 14.919,7.498 C14.919,7.498 16.700,7.498 16.700,7.498 C16.684,7.454 16.667,7.409 16.650,7.365 C15.593,4.657 12.983,2.740 9.930,2.740 C5.941,2.740 2.708,6.011 2.708,10.046 C2.708,14.081 5.941,17.352 9.930,17.352 C12.863,17.352 15.388,15.582 16.519,13.041 C16.530,13.017 16.537,12.991 16.547,12.966 C16.547,12.966 18.484,14.914 18.484,14.914 C18.471,14.937 18.462,14.962 18.449,14.985 C18.446,14.990 18.443,14.996 18.440,15.001 C16.731,17.987 13.539,19.996 9.882,19.996 C4.424,19.996 -0.000,15.520 -0.000,9.998 C-0.000,4.476 4.424,0.000 9.882,0.000 C14.444,0.000 18.285,3.128 19.422,7.379 C19.433,7.418 19.436,7.459 19.446,7.498 C19.446,7.498 21.000,7.498 21.000,7.498 C21.000,7.498 17.959,10.575 17.959,10.575 Z" id="path-1" class="cls-2" fill-rule="evenodd"/>
</svg>
