<svg xmlns="http://www.w3.org/2000/svg" xmlns:xlink="http://www.w3.org/1999/xlink" preserveAspectRatio="xMidYMid" width="20" height="20" viewBox="0 0 20 20">
  <defs>
    <style>

      .cls-2 {
        fill: #efefef;
      }
    </style>
  </defs>
  <path d="M8.800,0.026 C8.800,0.026 7.200,0.041 7.200,1.640 C7.200,3.238 7.200,7.233 7.200,7.233 C7.200,7.233 1.550,7.233 1.550,7.233 C1.550,7.233 0.000,7.316 0.000,8.764 C0.000,8.764 0.000,11.061 0.000,11.061 C0.000,11.061 -0.050,12.825 1.500,12.825 C1.500,12.825 7.200,12.825 7.200,12.825 C7.200,12.825 7.200,18.402 7.200,18.402 C7.200,18.402 7.200,20.000 8.750,20.000 C8.750,20.000 11.150,20.000 11.150,20.000 C11.150,20.000 12.800,19.900 12.800,18.502 C12.800,18.502 12.800,12.834 12.800,12.834 C12.800,12.834 18.350,12.834 18.350,12.834 C18.350,12.834 20.000,12.859 20.000,11.261 C20.000,11.261 20.000,8.764 20.000,8.764 C20.000,8.764 19.950,7.242 18.400,7.242 C18.400,7.242 12.850,7.242 12.850,7.242 C12.850,7.242 12.850,1.607 12.850,1.607 C12.850,1.607 12.600,0.000 11.250,0.000 C9.900,0.000 8.800,0.026 8.800,0.026 Z" id="path-1" class="cls-2" fill-rule="evenodd"/>
</svg>
