<?xml version="1.0" encoding="utf-8"?>
<!-- Generator: Adobe Illustrator 22.1.0, SVG Export Plug-In . SVG Version: 6.00 Build 0)  -->
<svg version="1.1" id="Layer_1" xmlns="http://www.w3.org/2000/svg" xmlns:xlink="http://www.w3.org/1999/xlink" x="0px" y="0px"
	 viewBox="0 0 288 288" enable-background="new 0 0 288 288" xml:space="preserve">
<g>
	<path fill="#FFFFFF" d="M200.3,30.9c17.2,10,30.8,23.6,40.8,40.8c10,17.2,15,35.9,15,56.3c0,22-6,42.2-18,60.6
		c-11.3,17.7-26.4,31-45,40c-1,0.7-2,0.7-3,0c-1-0.7-1.3-1.7-1-3c1.3-9,2.2-16.8,2.5-23.5c12.3-8,22.2-18.5,29.5-31.5
		c7.3-13,11-27.3,11-43c0-15.7-4-30.3-12-43.8s-18.8-24.2-32.3-32c-13.5-7.8-28.2-11.8-44-11.8c-15.8,0-30.4,3.9-43.8,11.8
		c-13.3,7.8-24,18.5-32,32s-12,27.9-12,43.3c0,15.4,3.5,29.5,10.5,42.5S82.9,193,95,201c1,0.7,1.5,1.5,1.5,2.5
		c0.3,6.3,1.2,13.7,2.5,22c0.3,1.3,0,2.3-1,3c-1,0.7-2,0.7-3,0c-19-9-34.2-22.3-45.5-40C37.7,170.2,31.9,150,31.9,128
		c0-20.3,5-39.1,15-56.3s23.6-30.8,40.8-40.8c17.2-10,35.9-15,56.3-15C164.3,15.9,183.1,20.9,200.3,30.9z M111.5,162.8
		c0,0.8-0.5,1.6-1.5,2.2c-4.7,3.3-8.2,7.5-10.5,12.5c-0.3,1-1,1.6-2,1.8c-1,0.2-1.8-0.1-2.5-0.8c-7.3-6.7-13-14.6-17-23.8
		c-4-9.2-6-18.8-6-28.8c0-13.3,3.3-25.6,10-36.8c6.7-11.2,15.7-19.9,27-26.3c11.3-6.3,23.7-9.3,37-9c12.7,0.3,24.3,3.7,34.8,10
		c10.5,6.3,18.9,14.9,25.3,25.5c6.3,10.7,9.7,22.2,10,34.5c0.3,10.7-1.5,20.7-5.5,30c-4,9.3-9.8,17.5-17.5,24.5
		c-0.7,0.7-1.5,0.9-2.5,0.8c-1-0.2-1.7-0.8-2-1.8c-2.3-5-5.8-9.2-10.5-12.5c-1-0.7-1.5-1.4-1.5-2.2c0-0.8,0.3-1.6,1-2.3
		c9.7-9.7,14.5-21.2,14.5-34.5c0-9-2.3-17.3-6.8-24.8c-4.5-7.5-10.6-13.3-18.3-17.5c-7.7-4.2-16-6.1-25-5.8
		c-12.3,0.7-22.9,5.4-31.8,14.3c-8.8,8.8-13.6,19.4-14.3,31.8c-0.3,7,0.8,13.7,3.5,20c2.7,6.3,6.3,11.8,11,16.5
		C111.1,161.2,111.5,161.9,111.5,162.8z M166.8,105.2c6.2,6.2,9.3,13.8,9.3,22.8s-3.1,16.6-9.3,22.8c-6.2,6.2-13.8,9.3-22.8,9.3
		s-16.6-3.1-22.8-9.3c-6.2-6.2-9.3-13.8-9.3-22.8s3.1-16.6,9.3-22.8C127.4,99.1,135,96,144,96S160.6,99.1,166.8,105.2z M172.5,228.1
		c2.3-15,3.5-26.3,3.5-34c0-14.7-10.7-22-32-22c-21.4,0-32,7.3-32,22c0,7.7,1.2,19,3.5,34c2.3,13.3,4.6,24,6.8,32
		c2.2,8,9.4,12,21.8,12c12.3,0,19.5-3.8,21.5-11.5C167.8,252.3,170.2,241.4,172.5,228.1z"/>
</g>
</svg>
