<svg xmlns="http://www.w3.org/2000/svg" xmlns:xlink="http://www.w3.org/1999/xlink" preserveAspectRatio="xMidYMid" width="14" height="20" viewBox="0 0 14 20">
  <defs>
    <style>

      .cls-2 {
        fill: #444444;
      }
    </style>
  </defs>
  <path d="M1.889,6.667 C1.889,6.667 -0.005,4.815 -0.005,4.815 C-0.005,4.815 1.889,2.963 1.889,2.963 C1.889,2.963 13.544,2.963 13.544,2.963 C13.544,2.963 11.951,4.815 11.951,4.815 C11.951,4.815 13.544,6.667 13.544,6.667 C13.544,6.667 1.889,6.667 1.889,6.667 ZM4.803,0.000 C4.803,0.000 8.445,0.000 8.445,0.000 C8.445,0.000 8.445,2.222 8.445,2.222 C8.445,2.222 4.803,2.222 4.803,2.222 C4.803,2.222 4.803,0.000 4.803,0.000 ZM8.445,7.408 C8.445,7.408 8.445,8.889 8.445,8.889 C8.445,8.889 4.803,8.889 4.803,8.889 C4.803,8.889 4.803,7.408 4.803,7.408 C4.803,7.408 8.445,7.408 8.445,7.408 ZM12.088,9.630 C12.088,9.630 14.000,11.481 14.000,11.481 C14.000,11.481 12.088,13.333 12.088,13.333 C12.088,13.333 0.432,13.333 0.432,13.333 C0.432,13.333 2.026,11.481 2.026,11.481 C2.026,11.481 0.432,9.630 0.432,9.630 C0.432,9.630 12.088,9.630 12.088,9.630 ZM8.445,20.000 C8.445,20.000 4.803,20.000 4.803,20.000 C4.803,20.000 4.803,14.074 4.803,14.074 C4.803,14.074 8.445,14.074 8.445,14.074 C8.445,14.074 8.445,20.000 8.445,20.000 Z" id="path-1" class="cls-2" fill-rule="evenodd"/>
</svg>
