<svg xmlns="http://www.w3.org/2000/svg" xmlns:xlink="http://www.w3.org/1999/xlink" preserveAspectRatio="xMidYMid" width="24" height="24" viewBox="0 0 24 24">
  <defs>
    <style>

      .cls-2 {
        fill: #b3b3b3;
      }
    </style>
  </defs>
  <path d="M23.999,22.516 C23.999,22.516 22.548,23.994 22.548,23.994 C22.548,23.994 15.713,17.028 15.713,17.028 C13.984,18.558 11.803,19.400 9.492,19.400 C6.950,19.400 4.560,18.391 2.762,16.560 C-0.947,12.780 -0.947,6.628 2.763,2.846 C4.560,1.015 6.950,0.006 9.492,0.006 C12.033,0.006 14.423,1.015 16.220,2.846 C18.017,4.677 19.007,7.112 19.007,9.702 C19.007,11.821 18.335,13.830 17.110,15.496 C17.110,15.496 23.999,22.516 23.999,22.516 ZM14.769,4.325 C13.360,2.888 11.485,2.097 9.492,2.097 C7.498,2.097 5.623,2.888 4.214,4.325 C1.303,7.291 1.303,12.116 4.213,15.081 C5.623,16.518 7.498,17.309 9.492,17.309 C11.485,17.309 13.360,16.518 14.769,15.081 C16.179,13.644 16.956,11.734 16.956,9.702 C16.956,7.671 16.179,5.761 14.769,4.325 Z" id="path-1" class="cls-2" fill-rule="evenodd"/>
</svg>
