<svg version="1.1" xmlns="http://www.w3.org/2000/svg" xmlns:xlink="http://www.w3.org/1999/xlink" x="0px" y="0px" viewBox="0 0 1000 1000" enable-background="new 0 0 1000 1000" xml:space="preserve">
<path d="M412.5,836.5c-41.8,0-75.8,32.2-75.8,71.8s34,71.8,75.8,71.8c41.8,0,75.8-32.2,75.8-71.8S454.3,836.5,412.5,836.5z M412.5,939.3c-19.3,0-35-13.9-35-31c0-17.1,15.7-31,35-31c19.3,0,35,13.9,35,31S431.8,939.3,412.5,939.3z"/><path d="M800.4,836.5c-41.8,0-75.8,32.2-75.8,71.8s34,71.8,75.8,71.8s75.8-32.2,75.8-71.8S842.3,836.5,800.4,836.5z M800.4,939.3c-19.3,0-35-13.9-35-31c0-17.1,15.7-31,35-31c19.3,0,35,13.9,35,31S819.7,939.3,800.4,939.3z"/><path d="M887.4,657.5l102.1-428.7c1.4-6.1,0-12.5-3.8-17.4c-3.9-4.9-9.8-7.8-16-7.8H173.3c-3.3,0-6.3,1-9.1,2.4l-51-186.1H10v40.8h72.1l207.1,755.4h598.7v-40.8H320.4l-28-102.1h575.1C876.9,673.2,885.2,666.7,887.4,657.5z M452.9,509.8l-13.6-102.1h231.8l-13.6,102.1H452.9z M652.1,550.7l-10.9,81.7H469.3l-10.9-81.7H652.1z M219.6,407.8h178.5l13.6,102.1H247.6L219.6,407.8z M433.9,366.9l-16.3-122.5h275.4l-16.3,122.5H433.9z M712.3,407.8h192.5l-24.3,102.1H698.7L712.3,407.8z M914.6,366.9H717.8l16.3-122.5h209.6L914.6,366.9z M376.3,244.4l16.3,122.5H208.4l-33.6-122.5H376.3z M258.8,550.7h158.4l10.9,81.7H281.2L258.8,550.7z M682.4,632.3l10.9-81.7h177.5l-19.4,81.7H682.4z"/>
</svg>