<svg xmlns="http://www.w3.org/2000/svg" xmlns:xlink="http://www.w3.org/1999/xlink" preserveAspectRatio="xMidYMid" width="15" height="20" viewBox="0 0 15 20">
  <defs>
    <style>

      .cls-2 {
        fill: #ffffff;
        filter: url(#color-overlay-1);
      }
    </style>

    <filter id="color-overlay-1" filterUnits="userSpaceOnUse">
      <feFlood flood-color="#444444" flood-opacity="1"/>
      <feComposite operator="in" in2="SourceGraphic"/>
      <feBlend mode="normal" in2="SourceGraphic" result="colorOverlay"/>
    </filter>
  </defs>
  <path d="M14.704,18.660 C14.704,18.660 14.700,18.661 14.700,18.661 C14.701,18.663 13.178,19.531 13.178,19.531 C13.178,19.531 9.987,14.308 9.987,14.308 C9.987,14.308 11.510,13.436 11.510,13.436 C11.840,13.249 12.264,13.350 12.460,13.671 C12.462,13.673 14.947,17.731 14.947,17.731 C14.947,17.731 14.946,17.735 14.946,17.735 C15.133,18.044 15.053,18.460 14.704,18.660 ZM2.648,12.680 C-1.832,5.141 0.562,1.813 1.408,1.200 C1.408,1.200 4.674,6.536 4.674,6.536 C3.887,6.986 4.265,7.999 4.732,8.989 C4.740,9.037 7.003,12.724 7.023,12.737 C8.193,14.271 8.827,14.977 9.579,14.548 C9.579,14.548 12.762,19.757 12.762,19.757 C11.861,20.295 7.369,20.625 2.648,12.680 ZM6.613,5.427 C6.613,5.427 6.613,5.430 6.613,5.430 C6.612,5.432 5.090,6.299 5.090,6.299 C5.090,6.299 1.828,0.960 1.828,0.960 C1.828,0.960 3.350,0.087 3.350,0.087 C3.679,-0.099 4.104,0.000 4.301,0.323 C4.302,0.324 6.859,4.500 6.859,4.500 C6.859,4.500 6.858,4.504 6.858,4.504 C7.045,4.811 6.962,5.226 6.613,5.427 Z" id="path-1" class="cls-2" fill-rule="evenodd"/>
</svg>
