<svg xmlns="http://www.w3.org/2000/svg" xmlns:xlink="http://www.w3.org/1999/xlink" preserveAspectRatio="xMidYMid" width="23" height="18" viewBox="0 0 23 18">
  <defs>
    <style>

      .cls-2 {
        fill: #6dc9e4;
      }
    </style>
  </defs>
  <path d="M23.003,2.136 C22.157,2.498 21.247,2.741 20.292,2.851 C21.267,2.289 22.015,1.399 22.368,0.338 C21.456,0.859 20.446,1.237 19.370,1.441 C18.510,0.558 17.283,0.007 15.925,0.007 C13.319,0.007 11.205,2.040 11.205,4.548 C11.205,4.904 11.247,5.250 11.328,5.582 C7.405,5.393 3.927,3.585 1.599,0.838 C1.193,1.508 0.960,2.288 0.960,3.121 C0.960,4.696 1.793,6.086 3.059,6.901 C2.286,6.877 1.558,6.673 0.922,6.332 C0.921,6.351 0.921,6.370 0.921,6.390 C0.921,8.590 2.548,10.425 4.708,10.843 C4.312,10.946 3.895,11.002 3.464,11.002 C3.160,11.002 2.864,10.973 2.576,10.920 C3.177,12.724 4.920,14.037 6.985,14.074 C5.369,15.292 3.335,16.018 1.123,16.018 C0.742,16.018 0.367,15.996 -0.003,15.954 C2.086,17.243 4.567,17.995 7.232,17.995 C15.914,17.995 20.662,11.075 20.662,5.074 C20.662,4.878 20.657,4.681 20.648,4.487 C21.570,3.847 22.371,3.047 23.003,2.136 Z" id="path-1" class="cls-2" fill-rule="evenodd"/>
</svg>
