<svg xmlns="http://www.w3.org/2000/svg" xmlns:xlink="http://www.w3.org/1999/xlink" preserveAspectRatio="xMidYMid" width="24" height="20" viewBox="0 0 24 20">
  <defs>
    <style>

      .cls-2 {
        fill: #ffffff;
      }
    </style>
  </defs>
  <path d="M22.257,6.659 C19.547,4.199 15.940,2.698 11.981,2.698 C8.015,2.698 4.404,4.204 1.693,6.670 C1.693,6.670 -0.010,4.488 -0.010,4.488 C3.177,1.687 7.378,-0.010 11.981,-0.010 C16.594,-0.010 20.803,1.694 23.993,4.507 C23.993,4.507 22.257,6.659 22.257,6.659 ZM11.980,5.439 C15.377,5.439 18.456,6.787 20.706,8.974 C20.706,8.974 18.984,11.058 18.984,11.058 C17.208,9.246 14.726,8.121 11.980,8.121 C9.288,8.121 6.850,9.202 5.082,10.951 C5.082,10.951 3.378,8.855 3.378,8.855 C5.616,6.739 8.645,5.439 11.980,5.439 ZM11.979,11.037 C14.003,11.037 15.822,11.910 17.074,13.298 C17.074,13.298 15.413,15.380 15.413,15.380 C14.646,14.319 13.393,13.628 11.977,13.628 C10.692,13.628 9.540,14.197 8.765,15.097 C8.765,15.097 6.834,13.354 6.834,13.354 C8.088,11.934 9.928,11.037 11.979,11.037 ZM11.908,16.444 C12.723,16.444 13.384,17.101 13.384,17.910 C13.384,17.910 11.908,19.987 11.908,19.987 C11.908,19.987 11.202,19.025 10.510,17.910 C10.510,17.101 11.094,16.444 11.908,16.444 Z" id="path-1" class="cls-2" fill-rule="evenodd"/>
</svg>
