<?xml version="1.0" encoding="utf-8"?>
<!-- Generator: Adobe Illustrator 26.2.1, SVG Export Plug-In . SVG Version: 6.00 Build 0)  -->
<svg version="1.1" xmlns="http://www.w3.org/2000/svg" xmlns:xlink="http://www.w3.org/1999/xlink" x="0px" y="0px"
	 viewBox="0 0 80 80" style="enable-background:new 0 0 80 80;" xml:space="preserve">
<style type="text/css">
	.st0{display:none;}
	.st1{display:inline;}
</style>
<g id="articles" class="st0">
	<g class="st1">
		<path d="M67.95,6.56c0.18,0,0.35,0.17,0.35,0.35v66.18c0,0.18-0.17,0.35-0.35,0.35h-55.9c-0.18,0-0.35-0.17-0.35-0.35V6.91
			c0-0.18,0.17-0.35,0.35-0.35H67.95 M67.95,2.56h-55.9c-2.39,0-4.35,1.96-4.35,4.35v66.18c0,2.39,1.96,4.35,4.35,4.35h55.9
			c2.39,0,4.35-1.96,4.35-4.35V6.91C72.3,4.52,70.34,2.56,67.95,2.56L67.95,2.56z"/>
		<g>
			<path d="M37.21,22.15H18.28c-0.41,0-0.75-0.33-0.75-0.75v-3.56c0-0.41,0.33-0.75,0.75-0.75h18.93c0.41,0,0.75,0.33,0.75,0.75
				v3.56C37.96,21.81,37.62,22.15,37.21,22.15z"/>
			<path d="M61.72,42.52H43.87c-0.41,0-0.75-0.33-0.75-0.75V17.84c0-0.41,0.33-0.75,0.75-0.75h17.86c0.41,0,0.75,0.33,0.75,0.75
				v23.93C62.47,42.18,62.13,42.52,61.72,42.52z"/>
			<path d="M37.21,32.33H18.28c-0.41,0-0.75-0.33-0.75-0.75v-3.56c0-0.41,0.33-0.75,0.75-0.75h18.93c0.41,0,0.75,0.33,0.75,0.75
				v3.56C37.96,32,37.62,32.33,37.21,32.33z"/>
			<path d="M37.21,42.52H18.28c-0.41,0-0.75-0.33-0.75-0.75v-3.56c0-0.41,0.33-0.75,0.75-0.75h18.93c0.41,0,0.75,0.33,0.75,0.75
				v3.56C37.96,42.18,37.62,42.52,37.21,42.52z"/>
			<path d="M61.72,52.7H18.28c-0.41,0-0.75-0.33-0.75-0.75V48.4c0-0.41,0.33-0.75,0.75-0.75h43.45c0.41,0,0.75,0.33,0.75,0.75v3.56
				C62.47,52.37,62.13,52.7,61.72,52.7z"/>
			<path d="M61.72,62.93H18.28c-0.41,0-0.75-0.33-0.75-0.75v-3.56c0-0.41,0.33-0.75,0.75-0.75h43.45c0.41,0,0.75,0.33,0.75,0.75
				v3.56C62.47,62.6,62.13,62.93,61.72,62.93z"/>
		</g>
	</g>
</g>
<g id="blog" class="st0">
	<g class="st1">
		<path d="M22.61,57.96c8.1-0.03,17.41-0.02,25.51-0.02c0.42,0,0.85,0.02,1.21-0.23c2.27-1.57,3.33-3.15,5.59-4.72
			c-0.03-0.07-0.05-0.14-0.08-0.21c-0.31,0-0.63,0-0.94,0c-5.21,0-10.42,0-15.63,0c-5.18,0-10.35,0.02-15.53-0.02
			c-0.92-0.01-1.15,0.27-1.1,1.13c0.07,1.02,0.06,2.06,0,3.08C21.62,57.72,21.83,57.97,22.61,57.96z"/>
		<path d="M41.16,68.12c-7.72,0.03-15.44,0.02-23.16,0.01c-0.45,0-0.9-0.03-1.34-0.08c-1.81-0.23-2.55-1.01-2.55-2.86
			c-0.01-9.13-0.01-45.63,0-54.76c0-1.84,0.74-2.63,2.55-2.86c0.44-0.06,45.46-0.06,45.9,0c1.81,0.23,2.55,1.01,2.55,2.86
			c0.01,7.75-0.03,29.33-0.03,33.27c1.46-0.6,2.84-0.97,4.26-0.72c0.9,0.16,0.94-0.21,0.94-0.89c0-1.5,0-2.99,0-4.49h0
			c0-13.17,0-14.31,0-27.47c0-3.67-2.48-6.73-6.07-7.57c-1.02-0.24-48.17-0.24-49.2,0c-3.6,0.83-6.07,3.9-6.07,7.57
			c0,9.23,0,46.15,0,55.38c0,3.67,2.48,6.73,6.07,7.57c1.02,0.24,2.05,0.15,3.07,0.15c7.17,0.01,14.35-0.01,21.52,0.02
			c0.82,0,1.23-0.25,1.42-1.06c0.24-1.03,0.54-2.05,0.91-3.04C42.22,68.31,42.02,68.11,41.16,68.12z"/>
		<path d="M61.17,54.93c-0.46-0.47-0.71-0.42-1.15,0.02c-3.91,3.95-7.84,7.88-11.77,11.82c-0.23,0.23-0.45,0.47-0.54,0.78
			c-0.9,3.04-1.81,6.08-2.67,9.14c-0.23,0.83,0.27,1.37,1.24,1.38c0.12-0.02,0.35-0.03,0.56-0.09c2.77-0.81,5.53-1.63,8.3-2.44
			c0.5-0.15,0.95-0.4,1.32-0.77c3.92-3.9,7.83-7.81,11.75-11.7c0.42-0.42,0.48-0.7,0.01-1.16C65.85,59.61,63.5,57.28,61.17,54.93z"
			/>
		<path d="M74.4,52.86c-1.37-1.54-2.83-2.99-4.36-4.36c-0.42-0.38-0.91-0.59-1.47-0.57c-0.78-0.05-1.42,0.21-1.93,0.74
			c-0.94,0.97-1.85,1.97-2.79,2.93c-0.3,0.31-0.28,0.5,0.01,0.78c2.32,2.27,4.64,4.55,6.95,6.83c0.19,0.18,0.35,0.4,0.62,0.1
			c1.02-1.11,2.29-1.99,3.17-3.23C75.29,55.09,75.21,53.77,74.4,52.86z"/>
		<path d="M56.53,25.84c-5.66,0.03-11.31,0.02-16.97,0.02c-5.66,0-11.31,0.01-16.97-0.02c-0.71,0-0.97,0.16-0.93,0.9
			c0.06,1.06,0.06,2.12,0,3.18c-0.05,0.76,0.2,0.97,0.96,0.97c5.69-0.03,11.38-0.02,17.07-0.02c5.62,0,11.25-0.01,16.87,0.02
			c0.71,0,0.98-0.18,0.94-0.91c-0.05-1.06-0.06-2.12,0-3.18C57.55,26.02,57.27,25.84,56.53,25.84z"/>
		<path d="M56.53,16.83c-5.66,0.03-11.31,0.02-16.97,0.02c-5.66,0-11.31,0.01-16.97-0.02c-0.71,0-0.97,0.16-0.93,0.9
			c0.06,1.06,0.06,2.12,0,3.18c-0.05,0.76,0.2,0.97,0.96,0.97c5.69-0.03,11.38-0.02,17.07-0.02c5.62,0,11.25-0.01,16.87,0.02
			c0.71,0,0.98-0.18,0.94-0.91c-0.05-1.06-0.06-2.12,0-3.18C57.55,17.01,57.27,16.83,56.53,16.83z"/>
		<path d="M56.53,34.85c-5.66,0.03-11.31,0.02-16.97,0.02c-5.66,0-11.31,0.01-16.97-0.02c-0.71,0-0.97,0.16-0.93,0.9
			c0.06,1.06,0.06,2.12,0,3.18c-0.05,0.76,0.2,0.97,0.96,0.97c5.69-0.03,11.38-0.02,17.07-0.02c5.62,0,11.25-0.01,16.87,0.02
			c0.71,0,0.98-0.18,0.94-0.91c-0.05-1.06-0.06-2.12,0-3.18C57.55,35.03,57.27,34.85,56.53,34.85z"/>
		<path d="M56.53,43.81c-5.66,0.03-11.31,0.02-16.97,0.02c-5.66,0-11.31,0.01-16.97-0.02c-0.71,0-0.97,0.16-0.93,0.9
			c0.06,1.06,0.06,2.12,0,3.18c-0.05,0.76,0.2,0.97,0.96,0.97c5.69-0.03,11.38-0.02,17.07-0.02c5.62,0,11.25-0.01,16.87,0.02
			c0.71,0,0.98-0.18,0.94-0.91c-0.05-1.06-0.06-2.12,0-3.18C57.55,43.99,57.27,43.8,56.53,43.81z"/>
	</g>
</g>
<g id="sign_x5F_in" class="st0">
	<g id="jbU1hB_00000160873193234559214920000002655822756498725539_" class="st1">
		<g>
			<path d="M73.89,39.92c-0.02,16.54-11.99,30.76-28.25,33.57c-14.21,2.45-28.11-3.98-35.47-16.42c-1.2-2.02-0.72-4.31,1.14-5.45
				c1.89-1.16,4.16-0.54,5.41,1.54c3.64,6.07,8.81,10.17,15.6,12.17c14.85,4.37,30.38-5.05,33.41-20.24
				c2.92-14.64-6.51-28.61-21.21-31.44c-10.67-2.05-21.75,2.91-27.49,12.3c-1.18,1.93-2.79,2.7-4.59,2.19
				c-2.46-0.7-3.54-3.44-2.19-5.71C14.78,14.84,21.28,9.67,29.7,7.1c17.28-5.28,35.42,3.62,41.95,20.48
				C73.18,31.54,73.94,35.66,73.89,39.92z"/>
			<path d="M45.45,43.62c-0.31,0-0.62,0-0.93,0c-11.57,0-23.14,0-34.71,0c-2.21,0-3.61-0.95-4.16-2.77c-0.65-2.2,0.83-4.56,3.1-4.78
				c1.5-0.14,3.02-0.08,4.53-0.08c10.35-0.01,20.71,0,31.06,0c0.35,0,0.7,0,1.31,0c-0.4-0.43-0.64-0.7-0.9-0.95
				c-2.53-2.55-5.07-5.08-7.6-7.64c-1.12-1.13-1.4-2.79-0.77-4.2c0.64-1.42,2.08-2.42,3.62-2.22c0.86,0.11,1.85,0.46,2.45,1.05
				c5.09,4.98,10.11,10.03,15.13,15.08c1.57,1.58,1.48,3.83-0.16,5.48c-2.8,2.82-5.62,5.63-8.43,8.44c-2.27,2.27-4.52,4.54-6.8,6.79
				c-1.1,1.09-2.43,1.48-3.92,0.97c-1.47-0.5-2.35-1.57-2.59-3.11c-0.2-1.33,0.3-2.43,1.24-3.36c2.63-2.61,5.26-5.23,7.9-7.84
				c0.23-0.22,0.55-0.35,0.83-0.52C45.59,43.86,45.52,43.74,45.45,43.62z"/>
		</g>
	</g>
</g>
<g id="user">
	<path d="M74.67,37.49c-0.07-1.21-0.2-2.42-0.44-3.64C71.76,21.52,64.6,12.72,52.95,7.7c-3.01-1.3-6.38-2.09-10.01-2.36
		c-0.06-0.01-0.11-0.03-0.16-0.04l-0.2-0.05L37.6,5.21l-0.13,0.01c-0.38,0.06-0.77,0.11-1.16,0.16c-0.84,0.11-1.69,0.23-2.53,0.38
		c-8.08,1.48-14.91,5.42-20.32,11.71c-4.27,4.97-6.89,10.61-7.79,16.77C3.8,47.09,7.76,57.93,17.46,66.48
		c4.95,4.36,10.9,7.05,17.69,7.98c1.61,0.22,3.2,0.33,4.79,0.33c15.69,0,29.72-10.53,33.72-26.02c0.33-1.3,0.53-2.63,0.71-3.92
		C74.71,42.43,74.8,39.97,74.67,37.49z M39.98,25.86c0.02,0,0.03,0,0.05,0h0c2.66,0.01,5.14,1.05,6.99,2.91
		c1.85,1.88,2.87,4.39,2.85,7.07c-0.03,5.4-4.49,9.78-9.94,9.78c-0.01,0-0.03,0-0.04,0c-2.61-0.01-5.05-1.04-6.89-2.9
		c-1.87-1.89-2.89-4.41-2.88-7.09C30.14,30.23,34.57,25.86,39.98,25.86z M24.07,64.21c1.5-6.62,6.54-11.45,13.15-12.6
		c0.65-0.11,1.31-0.16,1.85-0.2c0.2-0.01,0.38-0.03,0.53-0.04c0.01,0,0.03,0,0.04,0c7.98,0,14.66,5.26,16.29,12.91
		c-4.33,2.8-9.07,4.37-14.08,4.68c-6.32,0.39-12.3-1.17-17.75-4.66c-0.02-0.01-0.03-0.02-0.04-0.03
		C24.06,64.26,24.06,64.24,24.07,64.21z M55.51,33.92c-0.42-4.08-2.29-7.52-5.56-10.22c-6.56-5.41-16.13-4.62-21.79,1.8
		c-2.87,3.25-4.24,7.86-3.67,12.32c0.52,4.02,2.5,7.57,5.64,10.12c-5.1,2.61-8.92,6.91-10.92,12.33c-2.37-2.41-4.21-5.09-5.61-8.14
		C11,46.45,10.29,40.48,11.49,34.4c2.47-12.54,13.06-22.13,25.73-23.32c0.91-0.09,1.82-0.13,2.72-0.13
		c12.04,0,23.02,7.49,27.27,18.94c3.93,10.56,1.31,22.59-6.48,30.36c-2.05-5.49-5.73-9.63-10.96-12.32
		C54.16,44.26,56.09,39.55,55.51,33.92z"/>
</g>
</svg>
