<?xml version="1.0" encoding="UTF-8" standalone="no"?>
<svg
   xmlns:dc="http://purl.org/dc/elements/1.1/"
   xmlns:cc="http://creativecommons.org/ns#"
   xmlns:rdf="http://www.w3.org/1999/02/22-rdf-syntax-ns#"
   xmlns:svg="http://www.w3.org/2000/svg"
   xmlns="http://www.w3.org/2000/svg"
   viewBox="0 0 273.25333 94.626663"
   height="94.626663"
   width="273.25333"
   xml:space="preserve"
   id="svg2"
   version="1.1"><metadata
     id="metadata8"><rdf:RDF><cc:Work
         rdf:about=""><dc:format>image/svg+xml</dc:format><dc:type
           rdf:resource="http://purl.org/dc/dcmitype/StillImage" /></cc:Work></rdf:RDF></metadata><defs
     id="defs6"><clipPath
       id="clipPath20"
       clipPathUnits="userSpaceOnUse"><path
         id="path18"
         d="M 0,0 H 2049 V 709.707 H 0 Z" /></clipPath></defs><g
     transform="matrix(1.3333333,0,0,-1.3333333,0,94.626667)"
     id="g10"><g
       transform="scale(0.1)"
       id="g12"><g
         id="g14"><g
           clip-path="url(#clipPath20)"
           id="g16"><path
             id="path22"
             style="fill:#ffffff;fill-opacity:1;fill-rule:nonzero;stroke:none"
             d="M 1623.17,709.707 V 650.75 c 193.05,-3.945 353.48,-155.656 367.11,-360.734 h 59.13 c -13.84,238.168 -201.05,415.761 -426.24,419.691" /><path
             id="path24"
             style="fill:#ffffff;fill-opacity:1;fill-rule:nonzero;stroke:none"
             d="m 1141.67,266.699 c 2.01,28.457 9.94,50.434 23.8,65.922 13.85,15.488 32.99,23.227 57.42,23.227 24.43,0 43.82,-7.739 58.18,-23.227 14.35,-15.488 21.78,-37.465 22.28,-65.922 z m -384.955,0 c 2.012,28.457 9.945,50.434 23.797,65.922 13.847,15.488 32.992,23.227 57.422,23.227 24.425,0 43.82,-7.739 58.175,-23.227 14.356,-15.488 21.782,-37.465 22.286,-65.922 z m 895.715,-20.019 40.72,44.48 c -14.37,30.012 -39.56,53.539 -70.24,66.074 l -97.78,-105.14 1.12,343.265 H 1411.04 V 256.023 c -1.81,55.063 -18.19,98.774 -49.51,130.801 -33.25,34.008 -79.71,51.004 -139.4,51.004 -62.45,0 -111.37,-19.332 -146.75,-57.988 -26.44,-28.879 -42.98,-66.731 -49.67,-113.524 -3.42,50.282 -19.77,90.481 -49.136,120.508 -33.246,34.008 -79.707,51.004 -139.398,51.004 -62.461,0 -111.379,-19.332 -146.762,-57.988 -25.695,-28.074 -41.934,-64.735 -48.969,-109.738 v 12.839 c 0,54.153 -12.277,93.5 -36.836,118.047 -24.554,24.567 -60.761,36.84 -108.601,36.84 -27.711,0 -52.578,-5.426 -74.61,-16.242 -22.043,-10.832 -38.722,-26.07 -50.054,-45.715 h -10.203 c -22.414,41.301 -65.227,61.957 -128.438,61.957 -27.707,0 -52.265,-5.476 -73.664,-16.433 -21.41,-10.961 -37.777,-26.133 -49.109,-45.524 h -6.422 l -15.4885,54.02 H 0 V 7.55078 H 115.219 V 206.258 c 0,49.605 6.668,85.238 20.019,106.906 13.344,21.652 34.758,32.484 64.223,32.484 21.91,0 37.965,-7.617 48.16,-22.855 10.203,-15.238 15.301,-38.094 15.301,-68.563 V 7.55078 H 378.141 V 219.48 c 0,43.821 6.992,75.801 20.964,95.946 13.977,20.152 35.067,30.222 63.278,30.222 21.91,0 37.965,-7.617 48.168,-22.855 10.195,-15.238 15.301,-38.094 15.301,-68.563 V 7.55078 H 641.445 V 164.512 c 7.446,-44.5 25.157,-80.6292 53.317,-108.2268 C 733.039,18.7539 786.18,0 854.176,0 c 32.992,0 60.945,2.45312 83.867,7.35938 22.914,4.91402 44.441,12.40622 64.597,22.48042 V 118.996 C 977.957,107.406 954.281,98.9688 931.617,93.6875 908.949,88.3945 884.898,85.75 859.469,85.75 c -32.746,0 -58.18,9.1914 -76.313,27.578 -18.133,18.375 -27.832,43.945 -29.086,76.68 h 269.2 c 4.28,-56.43 23.08,-101.0236 56.45,-133.7228 C 1118,18.7539 1171.14,0 1239.14,0 c 32.98,0 60.94,2.45312 83.85,7.35938 22.92,4.91402 44.45,12.40622 64.6,22.48042 v 89.1562 c -24.68,-11.59 -48.35,-20.0272 -71.02,-25.3085 -22.66,-5.293 -46.72,-7.9375 -72.15,-7.9375 -32.74,0 -58.17,9.1914 -76.31,27.578 -18.13,18.375 -27.82,43.945 -29.08,76.68 h 272.01 V 7.55078 h 115.21 V 128.852 l 49.49,49.828 121.64,-171.12922 h 132.98 L 1652.43,246.68" /><path
             id="path26"
             style="fill:#ffffff;fill-opacity:1;fill-rule:nonzero;stroke:none"
             d="m 1623.17,590.551 v -58.985 c 130.31,-3.914 238.26,-106.445 248.17,-241.55 h 59.2 c -10.19,168.175 -144.92,296.601 -307.37,300.535" /><path
             id="path28"
             style="fill:#ffffff;fill-opacity:1;fill-rule:nonzero;stroke:none"
             d="m 1623.17,470.148 v -60.332 c 64.94,-3.761 118.35,-54.25 125.08,-119.8 h 60.57 c -7.07,99.281 -87.81,176.261 -185.65,180.132" /></g></g></g></g></svg>
